<?xml version="1.0" encoding="utf-8"?>
<!-- Generator: Adobe Illustrator 18.1.1, SVG Export Plug-In . SVG Version: 6.00 Build 0)  -->
<svg version="1.1" id="Capa_1" xmlns="http://www.w3.org/2000/svg" xmlns:xlink="http://www.w3.org/1999/xlink" x="0px" y="0px"
	 viewBox="0 0 1400 980" enable-background="new 0 0 1400 980" xml:space="preserve">
<path fill="#444242" d="M1327.8,664.3c-7.7-13.3-36.6-16-82.7,17.8c-50.8,37.2-75.3,74.7-81.3,87.9c-0.3-0.3-0.6-0.6-1-1
	c0.3,0.1,0.7,0.2,1,0.2c-0.7-0.5-1.4-1-2.1-1.5c0.4,0,0.7,0,1.1,0c-0.4-0.3-0.7-0.6-1.1-0.8c0.3,0,0.7,0.1,1,0.1
	c-0.1-0.1-0.4-0.3-0.8-0.5c0.1-0.1,0.2-0.2,0.3-0.4c1.4-1.8,1-3.8,1-3.9l-0.1-0.5l0,0c0.8-0.8,1.3-1.8,1.3-3c0-2.3-1.8-4.1-3.9-4.1
	c-0.3,0-0.7,0.1-1,0.1l0,0l-0.4-0.4c-0.6-0.7-1.2-1-1.8-1.3c1.9-6.3,6.3-18.3,13.9-27.1c16.2-18.6,33.7-19.3,23.5-18.6
	c-3.4,0.2-32,11.9-38,45.5c-0.3-0.1-0.7-0.1-0.9-0.1c-0.4,0-0.7,0.1-1,0.1c-0.2-0.1-0.6-0.1-1-0.1c-0.3,0-0.6,0-1,0.1
	c-6-33.6-34.6-45.3-38-45.5c-10.2-0.7,7.4,0,23.5,18.6c7.6,8.8,12,20.8,13.9,27.1c-0.5,0.2-1.1,0.6-1.7,1.2l-0.4,0.4l0.1,0.1
	c-0.4-0.1-0.7-0.2-1.1-0.2c-2.2,0-3.9,1.9-3.9,4.1c0,1.2,0.5,2.3,1.3,3.1l-0.1,0.5c0,0.1-0.4,2.1,1,3.9c0.1,0.1,0.2,0.2,0.3,0.3
	c-0.4,0.3-0.8,0.5-0.9,0.5c0.3,0,0.7-0.1,1-0.1c-0.4,0.3-0.7,0.6-1.1,0.8c0.4,0,0.7,0,1.1,0c-0.7,0.5-1.4,1-2.1,1.5
	c0.3-0.1,0.7-0.2,1-0.2c-0.3,0.3-0.6,0.7-1,1c-6-13.2-30.5-50.7-81.3-87.9c-46.2-33.8-75.1-31.1-82.7-17.8c-2,3.5,0.4,12.6,1.4,17
	c4.8,21.5,16,33.8,17.8,44.9c1.9,11.1,6.3,6.3,8.2,29.3c1.9,23,13.7,25.2,30.4,26.7c3.3,0.3,9.6,0.8,17.6,1.4
	c-8.4,3.7-16.7,8.7-24.3,15.3c-5.6,5.6-13.7,8.5-12.3,47.5c3,14.1,10,23.4,16.3,29c6.3,5.6,6.7,10.4,18.9,16.3
	c12.3,5.9,18.9,4.5,23.8,7.1c4.8,2.6,18.6,6.3,31.6-8.2c5.9-6.6,10.8-18.8,18.2-31.6c6.1-10.6,13.2-21.7,16.7-30.3
	c0,0.4,0.1,0.8,0.1,1.1c0.2,2.4,0.3,3.5,1.3,3.8c-1.1,0.6-2.1,1.8-1.7,4c0.2,1.1,0.2,2.2,0.2,3.1c0,1.9,0,3.8,1.8,4.3
	c-0.4,0.2-0.7,0.5-1,0.9c-0.6,0.8-0.8,1.9-0.7,3.1l0.2,1.3c0.3,2,0.4,2.9,1.4,3.3c-0.7,0.5-1.3,1.4-1.3,3.1c0.1,1.5,0.5,2.4,1.2,2.8
	c-0.3,0.2-0.5,0.4-0.6,0.7c-0.3,0.8,0.2,1.8,1.5,3.2c-0.2,0.1-0.3,0.2-0.4,0.3c-0.2,0.4-0.2,1.1,1.3,3.2c1,1.4,2.9,3.8,4.3,3.8
	c0.2,0,0.6-0.1,0.9-0.4c0.3,0.3,0.6,0.4,0.9,0.4c1.5,0,3.3-2.4,4.3-3.8c1.5-2.2,1.5-2.8,1.3-3.2c-0.1-0.1-0.2-0.3-0.4-0.3
	c1.3-1.4,1.8-2.4,1.5-3.2c-0.1-0.3-0.3-0.5-0.6-0.7c0.6-0.4,1.1-1.1,1.2-2.8c0.1-1.7-0.6-2.6-1.3-3.1c1-0.4,1.1-1.3,1.4-3.3l0.2-1.3
	c0.2-1.3,0-2.3-0.7-3.1c-0.3-0.4-0.7-0.7-1-0.9c1.7-0.5,1.7-2.4,1.8-4.3c0-1,0-2.1,0.2-3.1c0.4-2.2-0.6-3.4-1.7-4
	c1-0.3,1.1-1.4,1.3-3.8c0-0.3,0.1-0.7,0.1-1.1c3.5,8.6,10.6,19.6,16.7,30.3c7.4,12.8,12.3,25,18.2,31.6c13,14.5,26.7,10.8,31.6,8.2
	c4.8-2.6,11.5-1.1,23.8-7.1c12.3-5.9,12.6-10.8,18.9-16.3c6.3-5.6,13.4-14.9,16.3-29c1.5-39-6.7-42-12.3-47.5
	c-7.6-6.6-15.8-11.6-24.3-15.3c8-0.5,14.3-1.1,17.6-1.4c16.7-1.5,28.6-3.7,30.4-26.7c1.9-23,6.3-18.2,8.2-29.3
	c1.9-11.1,13-23.4,17.8-44.9C1327.4,676.8,1329.8,667.8,1327.8,664.3z"/>
<path fill="#444242" d="M873.6,658.7c-5.1-14.9-47.5-9.6-94.9,25.1c-49.6,36.3-74.8,72.9-82.5,88.1c-0.3,0-0.5,0.1-0.8,0.1
	c-0.1,0.6-0.1,1.1-0.1,1.7c0,0,0,0.1-0.1,0.1c-0.3-0.3-0.6-0.6-0.9-0.9c0.1,0,0.1,0,0.1,0c0,0,0,0,0-0.1c0.1,0,0.3,0.1,0.4,0.1
	c-0.6-0.9-0.4-0.5-0.8-1.2c0,0,0.1,0,0.1,0.1c-0.1-0.1-0.2-0.2-0.3-0.3c0,0,0,0,0,0c0.2,0.1,0.4,0.2,0.6,0.3
	c-0.2-0.2-0.4-0.5-0.5-0.7c0.1,0,0.1,0,0.2,0.1c-0.1-0.1-0.2-0.1-0.3-0.2c0.2,0.1,0.4,0.1,0.6,0.2c-0.2-0.2-0.4-0.4-0.6-0.5
	c0,0,0,0,0,0c0,0-0.1,0-0.1,0c-0.1-0.1-0.1-0.1-0.2-0.2c0.2,0,0.4,0.1,0.6,0.1c-0.4-0.2-0.7-0.4-1.1-0.6c0.1,0,0.1,0,0.2,0
	c-0.1,0-0.1-0.1-0.2-0.1c0.2,0,0.3,0,0.5,0c-0.2-0.1-0.4-0.3-0.7-0.4c0.2,0,0.4,0,0.6,0.1c-0.1,0-0.3-0.1-0.5-0.3
	c0.1-0.1,0.2-0.1,0.2-0.2c0.8-0.9,0.6-2,0.6-2.1l-0.1-0.3l0,0c0.5-0.4,0.8-1,0.8-1.6c0-1.2-1.1-2.2-2.4-2.2c-0.2,0-0.4,0-0.6,0.1
	l0,0l-0.3-0.2c-0.4-0.4-0.9-0.6-1.3-0.7c1.1-4.1,3.7-12.6,8.6-18.9c9.8-12.6,20.4-13,14.3-12.6c-2.1,0.2-19.7,8.2-23.1,31.3
	c-0.2,0-0.3,0-0.5,0c-0.2,0-0.4,0-0.6,0.1c-0.1,0-0.3-0.1-0.6-0.1c-0.1,0-0.3,0-0.5,0.1c-3.4-23.2-21.1-31.2-23.1-31.3
	c-6.2-0.5,4.5,0,14.3,12.6c4.8,6.2,7.5,14.8,8.6,18.9c-0.4,0.1-0.8,0.3-1.2,0.7l-0.3,0.2l0,0c-0.2-0.1-0.4-0.1-0.7-0.1
	c-1.3,0-2.4,1-2.4,2.2c0,0.6,0.3,1.2,0.8,1.6l-0.1,0.2c0,0-0.3,1.1,0.6,2.1c0.1,0.1,0.1,0.1,0.2,0.2c-0.2,0.1-0.5,0.3-0.6,0.3
	c0.2,0,0.4,0,0.6-0.1c0,0,0,0-0.1,0c-0.2,0.1-0.3,0.2-0.3,0.2c0,0,0.1,0,0.1,0c-0.1,0.1-0.2,0.2-0.4,0.2c0.1,0,0.3,0,0.4,0
	c-0.1,0-0.1,0.1-0.2,0.1c0.1,0,0.2,0,0.3,0c-0.4,0.2-0.7,0.4-1.1,0.6c0.2,0,0.4-0.1,0.6-0.1c0,0,0,0,0,0c-0.1,0.1-0.2,0.1-0.4,0.2
	c0.1,0,0.1,0,0.1,0c-0.2,0.2-0.4,0.4-0.6,0.6c0.1,0,0.3-0.1,0.5-0.1c-0.1,0.1-0.1,0.1-0.2,0.2c0.1,0,0.2-0.1,0.3-0.1
	c-0.2,0.2-0.4,0.5-0.5,0.7c0.1-0.1,0.3-0.2,0.4-0.2c-0.1,0.1-0.1,0.2-0.2,0.3c0.1,0,0.1-0.1,0.2-0.1c-0.4,0.7-0.2,0.3-0.9,1.2
	c0.1,0,0.2,0,0.3-0.1c0,0,0,0,0,0c0.1,0,0.2,0,0.3-0.1c-0.3,0.3-0.6,0.6-0.9,1c0,0,0-0.1-0.1-0.1c0-0.6-0.1-1.1-0.1-1.7
	c-0.3,0-0.5-0.1-0.8-0.1c-7.7-15.2-32.9-51.8-82.5-88.1c-47.4-34.7-89.8-40-94.9-25.1c-2.5,7.3,14.7,22,18.2,25.1
	c11.3,10,14.3,21,16.2,32.4c1.9,11.5,8.9-0.8,9.7,41.4c0.5,23.7,8,27.7,25.2,29.2c3.7,0.3,11.1,1,20.3,1.6c-6.6,4-11,8.1-12.1,11.9
	c-1.2,2.6-3.2,7-3.6,8.7c-0.6,2.6-6,4.9-6.3,10.6c-0.3,5.7,7.1,12.3,9.1,12.8c0,0-5.7,4.9-4,10.6c1.1,2.6,5.1,1.4,6.6,4
	c1.4,2.6,2.9,5.1,5.4,6c2.6,0.9-0.9,3.7,0,9.7c0.9,6,5.4,4.9,7.7,6c2.3,1.1,11.7,8.6,3.1,30.5c-5.3,13.6-11.8,19.9-13.6,25
	c-1,3.1,1,7.8,3.6,9.3c2.6,1.4,8,2.3,9.7-2.2c1.7-4.6,2.2-11.3,2.3-14.9c0.3-7.1,3.7-27.4,18.3-25.1c0,0,1.1,6.3,11.1,0.9
	c0,0,8,5.7,12.3,2.6c4.3-3.1,2.3-11.7,5.4-13.1c3.1-1.4,0.9,3.1,3.7,4.3c2.9,1.1,8-11.7,8.8-20.3c0.9-8.6,16.8-4.4,12.6-28.4
	c-3.2-18.3,1.9-32.4,3.4-37.2c0.9-3.2,3.5-8.6,4.6-16.2c0.1-0.1,0.2-0.2,0.3-0.4c0,0.5,0,1.1,0.1,1.6c0.1-0.2,0.2-0.4,0.3-0.6
	c0,0.4,0,0.8,0,1.3c0.1-0.1,0.2-0.2,0.3-0.2c0,0,0,0,0.1,0c-0.1,0.3-0.1,0.5-0.2,0.8c0.6,0.1,0.9,0.9,0.7,2.1
	c0.1-0.2,0.3-0.4,0.4-0.6c0.1,0.6,0.2,1.2,0.3,1.8c0.1-0.3,0.2-0.7,0.3-1c0.1,0.5,0.2,1,0.3,1.5c0.1-0.3,0.1-0.6,0.2-0.8
	c0.1,0.1,0.1,0.2,0.2,0.3c0,0.4-0.1,0.8-0.1,1.1c-0.1,0.5-0.1,0.8,0.1,1c0,0,0.1,0,0.1,0.1c-0.4,0.4-0.7,1.1-0.8,2
	c0,0.3-0.1,0.6-0.1,0.9c-0.2,2-0.3,3,0.9,3.5c-0.7,0.3-1.7,1.2-1.5,3.4c0.1,0.5,0.1,0.9,0.1,1.2c0.1,1.3,0.2,1.9,0.8,2
	c-0.6,0.3-1.3,1-1,2.1c0.1,0.6,0.1,1.1,0.1,1.7c0,1,0,2,1.1,2.3c-0.2,0.1-0.4,0.3-0.6,0.5c-0.4,0.4-0.5,1-0.4,1.7l0.1,0.7
	c0.2,1.1,0.2,1.5,0.8,1.7c-0.4,0.3-0.8,0.7-0.8,1.6c0,0.8,0.3,1.3,0.7,1.5c-0.2,0.1-0.3,0.2-0.4,0.4c-0.2,0.4,0.1,1,0.9,1.7
	c-0.1,0-0.2,0.1-0.2,0.2c-0.1,0.2-0.1,0.6,0.8,1.7c0.6,0.8,1.8,2,2.6,2c0.1,0,0.4,0,0.5-0.2c0.2,0.2,0.4,0.2,0.5,0.2
	c0.9,0,2-1.3,2.6-2c0.9-1.1,0.9-1.5,0.8-1.7c0-0.1-0.1-0.1-0.2-0.2c0.8-0.7,1.1-1.3,0.9-1.7c-0.1-0.2-0.2-0.3-0.4-0.4
	c0.4-0.2,0.7-0.6,0.7-1.5c0.1-0.9-0.4-1.4-0.8-1.6c0.6-0.2,0.7-0.7,0.8-1.7l0.1-0.7c0.1-0.7,0-1.2-0.4-1.7c-0.2-0.2-0.4-0.4-0.6-0.5
	c1.1-0.3,1.1-1.3,1.1-2.3c0-0.5,0-1.1,0.1-1.7c0.2-1.1-0.4-1.8-1-2.1c0.6-0.2,0.7-0.7,0.8-2c0-0.3,0.1-0.7,0.1-1.2
	c0.2-2.2-0.7-3-1.5-3.4c1.2-0.5,1.1-1.5,0.9-3.5c0-0.3-0.1-0.6-0.1-0.9c-0.1-1-0.3-1.6-0.8-2c0,0,0.1,0,0.1-0.1
	c0.2-0.2,0.1-0.5,0.1-1c0-0.3-0.1-0.7-0.1-1.2c0-0.1,0.1-0.1,0.1-0.2c0.1,0.3,0.1,0.6,0.2,0.8c0.1-0.5,0.2-1,0.3-1.5
	c0.1,0.3,0.2,0.7,0.2,1c0.1-0.6,0.2-1.2,0.3-1.8c0.1,0.2,0.3,0.4,0.4,0.6c-0.1-0.4-0.1-0.7,0-1c0,0,0.1,0.1,0.1,0.1
	c0-0.2,0-0.4,0-0.6c0.1-0.4,0.3-0.6,0.7-0.7c-0.1-0.2-0.1-0.5-0.2-0.7c0,0,0.1,0,0.1,0c0.1,0.1,0.2,0.1,0.2,0.2c0-0.3,0-0.6,0-0.9
	c0,0,0,0,0.1,0.1c0-0.1,0-0.2,0-0.3c0.1,0.1,0.2,0.3,0.2,0.4c0-0.3,0-0.6,0-0.9c0,0,0,0,0,0.1c0-0.2,0-0.5,0-0.7
	c0.1,0.1,0.2,0.3,0.3,0.4c1.1,7.5,3.7,12.9,4.6,16c1.4,4.9,6.5,18.9,3.4,37.2c-4.2,24.1,11.8,19.9,12.6,28.4
	c0.9,8.6,2.7,15.6,7.5,16.2c3.1,0.4,1.9-1.6,5-0.2c3.1,1.4,1.1,10,5.4,13.1c4.3,3.1,12.3-2.6,12.3-2.6c8.2,11.8,11.1-0.9,11.1-0.9
	c14.6-2.3,18,18,18.3,25.1c0.1,3.6,0.6,10.4,2.3,14.9c1.7,4.5,7.1,3.6,9.7,2.2c2.6-1.4,4.6-6.2,3.6-9.3c-1.7-5.1-8.3-11.3-13.6-25
	c-8.6-22,0.9-29.4,3.1-30.5c2.3-1.1,6.8,0,7.7-6c0.9-6-2.6-8.8,0-9.7s4-3.4,5.4-6c1.4-2.6,5.4-1.4,6.6-4c1.7-5.7-4-10.6-4-10.6
	c2-0.6,9.4-7.1,9.1-12.8c-0.3-5.7-5.7-8-6.3-10.6c-0.4-1.7-2.3-6.1-3.6-8.7c-1.1-3.8-5.5-7.9-12.1-11.9c9.3-0.6,16.6-1.2,20.3-1.6
	c17.2-1.5,24.7-5.5,25.2-29.2c0.8-42.2,7.8-29.9,9.7-41.4c1.9-11.4,4.9-22.5,16.2-32.4C858.9,680.7,876.1,666,873.6,658.7z"/>
<path fill="#444242" d="M418.5,666.6c-7.7-13.3-36.6-16-82.7,17.8c-50.8,37.2-75.3,74.7-81.3,87.9c-0.3-0.3-0.6-0.7-1-1
	c0.3,0.1,0.7,0.2,1,0.2c-0.7-0.5-1.4-1-2.1-1.5c0.4,0,0.7,0,1.1,0c-0.4-0.3-0.7-0.6-1.1-0.8c0.3,0,0.7,0.1,1,0.1
	c-0.1-0.1-0.4-0.3-0.8-0.5c0.1-0.1,0.2-0.2,0.3-0.4c1.4-1.8,1-3.8,1-3.9l-0.1-0.5l0,0c0.8-0.8,1.3-1.8,1.3-3c0-2.3-1.8-4.1-3.9-4.1
	c-0.3,0-0.7,0.1-1,0.1l0,0l-0.4-0.4c-0.6-0.7-1.2-1-1.8-1.3c1.9-6.3,6.3-18.3,13.9-27.1c16.2-18.6,33.7-19.3,23.5-18.6
	c-3.4,0.2-32,11.9-38,45.5c-0.3-0.1-0.7-0.1-0.9-0.1c-0.4,0-0.7,0.1-1,0.1c-0.2-0.1-0.6-0.1-1-0.1c-0.3,0-0.6,0-1,0.2
	c-6-33.6-34.6-45.3-38-45.5c-10.2-0.7,7.4,0,23.5,18.6c7.6,8.8,12,20.8,13.9,27.1c-0.5,0.2-1.1,0.6-1.7,1.2l-0.4,0.4l0.1,0.1
	c-0.4-0.1-0.7-0.2-1.1-0.2c-2.2,0-3.9,1.9-3.9,4.1c0,1.2,0.5,2.3,1.3,3.1l-0.1,0.5c0,0.1-0.4,2.1,1,3.9c0.1,0.1,0.2,0.2,0.3,0.3
	c-0.4,0.3-0.8,0.5-0.9,0.5c0.3,0,0.7-0.1,1-0.1c-0.4,0.3-0.7,0.6-1.1,0.8c0.4,0,0.7,0,1.1,0c-0.7,0.5-1.4,1-2.1,1.5
	c0.3-0.1,0.7-0.2,1-0.2c-0.3,0.3-0.6,0.7-1,1c-6-13.2-30.6-50.7-81.3-87.9c-46.1-33.8-75.1-31.1-82.7-17.8c-2,3.5,0.4,12.6,1.4,17
	c4.8,21.5,16,33.8,17.8,44.9c1.9,11.1,6.3,6.3,8.2,29.3c1.9,23,13.7,25.2,30.4,26.7c3.3,0.3,9.6,0.8,17.6,1.4
	c-8.4,3.7-16.7,8.7-24.3,15.3c-5.6,5.6-13.7,8.5-12.3,47.5c3,14.1,10,23.4,16.3,29c6.3,5.6,6.7,10.4,18.9,16.3
	c12.3,5.9,18.9,4.5,23.8,7.1c4.8,2.6,18.6,6.3,31.6-8.2c5.9-6.6,10.8-18.8,18.2-31.6c6.1-10.6,13.2-21.7,16.7-30.3
	c0,0.4,0.1,0.8,0.1,1.1c0.2,2.4,0.3,3.5,1.3,3.8c-1.1,0.6-2.1,1.8-1.7,4c0.2,1.1,0.2,2.2,0.2,3.1c0,1.9,0,3.8,1.8,4.3
	c-0.4,0.2-0.7,0.5-1,0.9c-0.6,0.8-0.8,1.9-0.7,3.1l0.2,1.3c0.3,2,0.4,2.9,1.4,3.3c-0.7,0.5-1.4,1.4-1.3,3.1c0.1,1.5,0.5,2.4,1.2,2.8
	c-0.3,0.2-0.5,0.4-0.6,0.7c-0.3,0.8,0.2,1.8,1.5,3.2c-0.2,0.1-0.3,0.2-0.4,0.3c-0.2,0.4-0.2,1.1,1.3,3.2c1,1.4,2.9,3.8,4.4,3.8
	c0.2,0,0.6-0.1,0.9-0.4c0.3,0.3,0.6,0.4,0.9,0.4c1.5,0,3.3-2.4,4.3-3.8c1.5-2.2,1.5-2.8,1.3-3.2c-0.1-0.1-0.2-0.3-0.4-0.3
	c1.3-1.4,1.8-2.4,1.5-3.2c-0.1-0.3-0.3-0.5-0.6-0.7c0.6-0.4,1.1-1.1,1.2-2.8c0.1-1.7-0.6-2.6-1.3-3.1c1-0.4,1.1-1.3,1.4-3.3l0.2-1.3
	c0.2-1.3,0-2.3-0.6-3.1c-0.3-0.4-0.7-0.7-1-0.9c1.7-0.5,1.8-2.4,1.8-4.3c0-1,0-2.1,0.2-3.1c0.4-2.2-0.6-3.4-1.7-4
	c1-0.3,1.1-1.4,1.3-3.8c0-0.3,0.1-0.7,0.1-1.1c3.5,8.6,10.6,19.7,16.7,30.3c7.4,12.8,12.3,25,18.2,31.6c13,14.5,26.7,10.8,31.6,8.2
	c4.8-2.6,11.5-1.1,23.8-7.1c12.3-5.9,12.6-10.8,18.9-16.3c6.3-5.6,13.4-14.9,16.3-29c1.5-39-6.7-42-12.3-47.5
	c-7.6-6.6-15.8-11.6-24.3-15.3c8-0.5,14.3-1.1,17.6-1.4c16.7-1.5,28.6-3.7,30.4-26.7c1.9-23,6.3-18.2,8.2-29.3
	c1.9-11.1,13-23.4,17.8-44.9C418.1,679.2,420.5,670.1,418.5,666.6z"/>
<path fill="#444242" d="M1277.8,589.9c-3.2-13.4-14.9-23.7-17.8-28.8c-11.3-18.9-27-13.8-27-13.8c-0.7-0.8-1.7-1.4-3-2
	c19.5-4.3,32.4-9.1,37.2-15.4c7.3-9.5,9.3-21.3,2-30.8c-2.4-5.9-9.3-13-16.5-18.9c-1.6-8.7-10.9-17.7-10.9-17.7s-1.6-11.4-9.3-26
	c-15.9-31.8-37-30-74.1-2.3c7.3-23.5-1.9-32.9-2.6-39.1c-0.8-7.1-13.7-22.9-13.7-22.9c-1.2-4.7-8.5-13.8-8.5-13.8
	c-2-11.4-13.7-33.9-17.7-33.1c-26.3,5.1-28.2,120.3-26.2,162.1c1.3,27.5,5.6,48.2,8.4,59.1c-0.1,0-0.1-0.1-0.2-0.1
	c-0.9-0.5-2-0.6-2.9-0.4c-2.5-4-5.4-9.4-6.6-15.2c-3.4-16.7,3.7-26.9-0.2-20.8c-1.2,1.8-6,18.9,4.8,34.7c-2.9-3.7-6.4-8.8-8.2-14.5
	c-5.2-16.2,0.8-27.1-2.5-20.7c-1,2-4.4,22.1,11.5,37.1c-0.4,0.3-0.7,0.6-1,1c-0.2,0.2-0.3,0.3-0.4,0.4c-0.3,0.1-1.5,0.5-1.7,2.3
	c0,0-1,3.4,1.1,6.1c0,0,0.7,1.4,2.4,1.5c-0.1,0.4-0.3,0.8-0.4,0.9c0.2-0.2,0.3-0.3,0.5-0.5c-0.1,0.3-0.2,0.6-0.3,0.9
	c0.2-0.1,0.3-0.2,0.5-0.4c0,0.1-0.1,0.2-0.1,0.3c0.1,0,0.1-0.1,0.2-0.1c-0.2,0.5-0.3,0.9-0.5,1.4c0.2-0.2,0.3-0.4,0.4-0.6
	c0,0.1,0,0.2,0,0.3c0,0,0,0.1,0,0.1c0,0,0,0,0,0c0,0.3-0.1,0.7-0.1,1c0.1-0.2,0.3-0.4,0.4-0.6c0,0.1,0,0.3-0.1,0.4
	c0-0.1,0.1-0.1,0.1-0.2c0,0.4,0,0.7,0.1,1.1c0.1-0.2,0.2-0.5,0.3-0.7c0,0.2,0,0.4,0,0.5c0,0,0-0.1,0-0.1c0.2,0.9,0,0.4,0.2,1.8
	c0.1-0.1,0.2-0.2,0.3-0.4c0,0,0,0,0,0.1c0,0,0.1-0.1,0.1-0.1c0,0.6-0.1,1.3-0.1,1.9c0.1-0.2,0.2-0.4,0.3-0.6c0,0.1,0,0.1,0,0.2
	c0,0,0.1-0.1,0.1-0.1c0,0.9,0.1,1.7,0.2,2.6c0.1-0.3,0.1-0.7,0.2-1c0,0.2,0,0.4,0,0.5c0-0.1,0-0.1,0-0.2c0.2,1.9,0.4,2.8,1.4,4.6
	c0-0.3,0-0.6,0-0.8c0.4,1,0.9,2,1.2,3c-0.1-0.5-0.2-1-0.3-1.5c0.1,0.1,0.2,0.2,0.2,0.4c0.1,0.1,0.1,0.3,0.2,0.4c0-0.1,0-0.1,0-0.2
	c0.4,0.6,0.8,1.1,1.2,1.7c-0.3-0.6-0.5-1.1-0.8-1.7c0.5,0.6,0.9,1.3,1.4,1.9c-0.2-0.4-0.3-0.9-0.3-1.3c0.1,0.2,0.2,0.3,0.4,0.5
	c-0.1-0.4-0.2-0.8-0.3-1.1c0-0.1,0-0.2,0.1-0.3c0.3,0.5,0.6,1,0.7,1.2c0,0,0,0,0-0.1c0.1,0.2,0.1,0.3,0.2,0.5c0-0.3,0-0.7-0.1-1
	c0.3,0.6,0.5,1.2,0.8,1.8c0-0.1,0-0.3,0-0.4c0.1,0.2,0.2,0.3,0.2,0.5c0-0.3,0-0.5-0.1-0.8c0.3,0.5,0.5,1,0.8,1.6
	c0-0.2,0-0.5-0.1-0.7c0.2,0.2,0.4,0.5,0.6,0.7c0,0,0-0.1,0-0.1c0.3,0.3,0.5,0.6,0.8,0.9c0-0.2-0.1-0.4-0.1-0.6
	c0.1,0.1,0.2,0.2,0.2,0.3c0,0,0-0.1,0-0.1c0.2,0.3,0.5,0.6,0.7,0.9c0-0.1,0-0.3,0.1-0.4c0,0,0.1,0,0.1,0c0.1,0.3,0.3,0.6,0.4,0.9
	c0.4-0.2,0.8-0.1,1.2,0.2c0.1,0.2,0.2,0.4,0.4,0.6c0-0.1,0-0.2,0-0.2c0.3,0.3,0.5,0.6,0.8,1c0-0.3-0.1-0.6-0.1-0.8
	c0.6,0.5,1.1,1.1,1.7,1.6c-0.2-0.4-0.4-0.8-0.6-1.2c0.5,0.4,1,0.9,1.5,1.3c-0.2-0.3-0.3-0.7-0.5-1c0.1,0,0.2,0.1,0.3,0.1
	c0.4,0.5,0.6,0.9,0.8,1.3c0.3,0.5,0.5,0.9,0.8,0.9c0,0,0.1,0,0.1,0c-0.1,0.7,0.2,1.6,0.9,2.6c0.2,0.4,0.5,0.7,0.7,1
	c1.4,2.1,2.2,3.3,3.7,2.9c-0.4,0.9-0.6,2.4,1.4,4.5c0.4,0.4,0.8,0.8,1.1,1.1c1.1,1.2,1.7,1.8,2.4,1.5c-0.3,0.8-0.4,1.9,0.8,2.9
	c0.6,0.5,1,1.1,1.5,1.6c0.8,1,1.6,2,2.8,1.5c-0.1,0.3-0.2,0.6-0.2,1c0,0.7,0.3,1.4,1,2l0.6,0.6c1,1,1.5,1.4,2.2,1.1
	c-0.2,0.6-0.2,1.3,0.6,2.2c0.8,0.9,1.4,1.1,1.9,1c-0.1,0.2-0.1,0.4,0,0.6c0.2,0.6,0.9,0.9,2.3,1.1c-0.1,0.1-0.1,0.3-0.1,0.3
	c0.1,0.3,0.4,0.7,2.1,1.2c1.2,0.3,3.3,0.8,4.1,0.2c0.1-0.1,0.3-0.3,0.3-0.6c0.3,0.1,0.5-0.1,0.7-0.2c0.8-0.6,0.9-2.7,0.8-3.9
	c-0.1-1.8-0.4-2.2-0.6-2.3c-0.1,0-0.2-0.1-0.4,0c0.2-1.3,0-2.1-0.5-2.4c-0.2-0.1-0.4-0.1-0.6-0.1c0.3-0.6,0.1-1.2-0.5-2
	c-0.7-1-1.5-1.1-2.1-1.1c0.4-0.6,0.1-1.1-0.6-2.4l-0.4-0.7c-0.4-0.7-1-1.2-1.7-1.4c-0.3-0.1-0.7-0.1-1-0.1c0.8-1,0-2-0.8-3.1
	c-0.4-0.5-0.9-1.1-1.2-1.8c-0.7-1.3-1.8-1.5-2.7-1.4c0.3-0.4,0.2-0.9-0.2-1.6c1,0.6,2,1.1,3,1.7c14.9,8.3,19.8,23.7,30.7,24.1
	c1.3,0,2.8,0.3,4.4,0.7c0.1,0.1,0.2,0.2,0.2,0.2c0.6,0.2,1.3,0.4,1.9,0.6c-0.1-0.1-0.2-0.2-0.2-0.3c11.4,3.5,26.9,13.3,32,15.3
	c5.1,2,15.2,3.4,18.4,3.8c0,0.1,0.1,0.1,0.1,0.2c0.5,0.1,0.7,0.1,0.7,0.1c0.2,0.1,0.4,0.3,0.6,0.4c0-0.1-0.1-0.2-0.1-0.3
	c13,8,20.4,5.5,22.5,4.5c0,0,0,0,0,0c0,0,0.1,0,0.1-0.1l0.3-0.2l0.2-0.1c0.2,0.2,3.8,3.5,8,3.5c14.9-0.8,23.8-12.6,20.6-19.7
	C1270.9,613.5,1281,603.3,1277.8,589.9z"/>
<path fill="#444242" d="M977.7,423.8c0-0.2,0-0.4,0-0.6c0-0.2,0-0.4-0.1-0.5c0-0.2,0-0.4-0.1-0.7c0-0.2-0.1-0.4-0.1-0.5
	c0-0.2-0.1-0.5-0.1-0.7c0-0.2-0.1-0.4-0.1-0.5c-0.1-0.2-0.1-0.5-0.2-0.7c-0.1-0.2-0.1-0.3-0.2-0.5c-0.2-0.5-0.4-0.9-0.6-1.4
	c-0.1-0.2-0.2-0.4-0.2-0.5c0,0,0,0,0,0C965.6,396,910.1,372.5,830,379c-66.7,5.4-92,18.7-101.6,27.6c-2-5.6-5.5-9-8.7-11
	c1.4-1,2.9-1.5,2.9-3.6c0-2-0.6-3.9-1.6-5.5c0.6-0.4,1-1,1-1.7c0-1.4-1.6-2.5-3.6-2.5c-0.8,0-1.5,0.2-2,0.4
	c-0.5-0.2-1.1-0.3-1.6-0.4c1.1-5.2,5.2-21.7,13.5-33.3c14.8-20.7,30.9-21.5,21.6-20.7c-3.2,0.3-30.9,14-35.2,54
	c-0.4-0.1-0.9-0.1-1.4-0.1c-0.5,0-0.9,0-1.4,0.1c-4.3-40-32-53.7-35.2-54c-9.3-0.8,6.8,0,21.6,20.7c8.3,11.6,12.4,28.1,13.5,33.3
	c-0.6,0.1-1.1,0.2-1.6,0.4c-0.6-0.3-1.3-0.4-2-0.4c-2,0-3.6,1.1-3.6,2.5c0,0.7,0.4,1.3,1,1.7c-1,1.6-1.6,3.4-1.6,5.5
	c0,2,1.4,2.6,2.8,3.7c-3.2,2-6.6,5.4-8.6,11c-9.6-8.9-34.9-22.2-101.6-27.6c-80.1-6.5-135.6,17.1-145.9,38.2c0,0,0,0,0,0
	c0,0,0,0.1-0.1,0.1c-0.3,0.6-0.5,1.2-0.8,1.8c-0.1,0.2-0.1,0.3-0.2,0.5c-0.1,0.2-0.1,0.5-0.2,0.7c0,0.2-0.1,0.3-0.1,0.5
	c-0.1,0.2-0.1,0.5-0.1,0.7c0,0.2-0.1,0.4-0.1,0.5c0,0.2-0.1,0.4-0.1,0.7c0,0.2,0,0.4-0.1,0.5c0,0.2,0,0.4,0,0.6c0,0.2,0,0.4,0,0.6
	c0,0.2,0,0.4,0,0.6c0,0.2,0,0.4,0.1,0.6c0,0.2,0.1,0.4,0.1,0.6c0,0.2,0.1,0.4,0.1,0.6c0,0.2,0.1,0.4,0.1,0.6
	c0.1,0.2,0.1,0.4,0.2,0.6c0.1,0.2,0.1,0.4,0.2,0.6c0.1,0.2,0.1,0.4,0.2,0.6c0.1,0.2,0.2,0.4,0.3,0.6c0.1,0.2,0.2,0.4,0.3,0.6
	c0.1,0.2,0.2,0.4,0.3,0.5c0.1,0.2,0.2,0.4,0.4,0.6c0.1,0.2,0.2,0.3,0.3,0.5c0.1,0.2,0.3,0.4,0.4,0.6c0.1,0.2,0.3,0.3,0.4,0.5
	c0.2,0.2,0.3,0.4,0.5,0.6c0.1,0.2,0.3,0.3,0.4,0.5c0.2,0.2,0.4,0.4,0.7,0.6c0.1,0.1,0.2,0.2,0.4,0.4c23.3,20.3,46.1,21.4,66,53.1
	c1.3,2.1,2.6,4.4,3.9,6.8c0.4,0.7,0.7,1.3,1.1,2c0.1,0.2,0.3,0.4,0.4,0.6c0.3,0.4,0.5,0.9,0.8,1.3c0.1,0.2,0.3,0.4,0.4,0.7
	c0.3,0.4,0.5,0.8,0.8,1.1c0.2,0.2,0.3,0.4,0.5,0.6c0.3,0.4,0.6,0.8,1,1.2c0.1,0.1,0.2,0.3,0.4,0.4c0.4,0.5,0.9,1,1.4,1.5
	c0.1,0.1,0.2,0.2,0.3,0.3c0.4,0.4,0.7,0.8,1.1,1.1c0.2,0.2,0.3,0.3,0.5,0.5c0.3,0.3,0.6,0.6,1,0.9c0.2,0.2,0.4,0.3,0.6,0.5
	c0.3,0.3,0.7,0.6,1,0.8c0.2,0.1,0.3,0.3,0.5,0.4c0.4,0.3,0.9,0.6,1.3,0.9c0.1,0.1,0.2,0.1,0.3,0.2c0.5,0.4,1.1,0.7,1.6,1
	c0.2,0.1,0.3,0.2,0.5,0.3c0.4,0.2,0.8,0.4,1.2,0.7c0.2,0.1,0.4,0.2,0.6,0.3c0.4,0.2,0.8,0.4,1.1,0.6c0.2,0.1,0.4,0.2,0.6,0.3
	c0.4,0.2,0.8,0.4,1.3,0.5c0.2,0.1,0.3,0.1,0.5,0.2c0.6,0.2,1.2,0.4,1.8,0.6c0,0,0.1,0,0.2,0c0.6,0.2,1.1,0.4,1.7,0.5
	c0.2,0.1,0.4,0.1,0.6,0.2c0.4,0.1,0.9,0.2,1.3,0.3c0.2,0,0.4,0.1,0.7,0.1c0.4,0.1,0.9,0.2,1.3,0.3c0.2,0,0.4,0.1,0.6,0.1
	c0.5,0.1,1.1,0.2,1.6,0.2c0.1,0,0.3,0,0.4,0.1c0.7,0.1,1.4,0.2,2,0.2c0.1,0,0.3,0,0.4,0c0.5,0,1.1,0.1,1.6,0.1c0.2,0,0.4,0,0.7,0
	c0.5,0,1,0,1.5,0c0.2,0,0.5,0,0.7,0c0.5,0,1,0,1.5,0c0.2,0,0.4,0,0.6,0c1.4-0.1,2.9-0.2,4.4-0.3c0.2,0,0.4,0,0.6-0.1
	c0.5-0.1,1.1-0.1,1.7-0.2c0.2,0,0.5-0.1,0.7-0.1c0.5-0.1,1-0.2,1.6-0.2c0.2,0,0.5-0.1,0.7-0.1c0.6-0.1,1.2-0.2,1.8-0.3
	c0.2,0,0.3-0.1,0.5-0.1c0.8-0.2,1.5-0.3,2.3-0.5c0.1,0,0.2,0,0.3-0.1c0.7-0.2,1.3-0.3,2-0.5c0.2-0.1,0.5-0.1,0.7-0.2
	c0.5-0.1,1.1-0.3,1.6-0.4c0.3-0.1,0.5-0.2,0.8-0.2c0.5-0.2,1.1-0.3,1.6-0.5c0.3-0.1,0.5-0.2,0.8-0.2c0.6-0.2,1.3-0.4,1.9-0.6
	c0.1,0,0.3-0.1,0.4-0.1c0,0,0,0,0,0c1.7-0.6,3.3-1.2,5-1.8c-3.8,5.5-6.4,10.9-7.4,16.2c1.7,9.7,1.8,12.4-2.1,24.4
	c-4,12,2.9,10.1,7.5,10.7c4.6,0.6-5.1,15.4,4.3,19c9.4,3.5,10.9-1.3,14.5,1.2c3.6,2.6,1.2,13.2,8,16.3c6.8,3.1,17.7-2.7,13.2,17.8
	c-2.7,12.3-4.9,24.7-2.7,33.7c1.5,6,3.8,12.1,11.4,12.3c4.1,0.1,5.9-3.6,5.8-8c0,0,0,0,0.1,0.1c0-3.7-1.5-7.9-4-10.5
	c-2.7-2.8-2.4-9.6-0.1-15.9c2.3-6.3,6.4-12,11.2-12.4c9.7-0.8,11.7-0.7,14.5-2.9c2.8-2.2,14.4,8.2,23.2-6.1
	c4.8-7.8,9.2-14.6,12.1-22c0-0.1,0.1-0.1,0.1-0.2c0.2-0.5,0.3-0.9,0.5-1.4c0.2-0.4,0.3-0.9,0.4-1.3c0.1-0.3,0.2-0.6,0.3-0.8
	c0.2-0.7,0.4-1.4,0.6-2.1c0-0.1,0-0.1,0.1-0.2c0.7-2.7,1.2-5.5,1.5-8.5c0,0.1,0,0.1-0.1,0.2c0.2-2.1,0.2-4.2,0.1-6.5
	c-0.6-17.8-7.9-63.5-4.9-92.2c0.3-2.5,0.5-4.8,0.8-7c-0.4,16.1-0.2,53,10.4,55.3c0.3,0.2,0.5,0.3,0.8,0.3c0.3,0,0.5-0.1,0.8-0.3
	c10.6-2.2,10.8-39.1,10.4-55.2c0.2,2.2,0.5,4.5,0.8,7c3,28.7-4.3,74.4-4.9,92.2c-0.1,2.3,0,4.5,0.1,6.5c0-0.1,0-0.1-0.1-0.2
	c0.3,3,0.8,5.9,1.5,8.6c0,0,0,0.1,0,0.1c0.2,0.8,0.4,1.5,0.7,2.3c0.1,0.2,0.1,0.5,0.2,0.7c0.2,0.5,0.3,1,0.5,1.5
	c0.1,0.4,0.3,0.8,0.4,1.2c0.1,0.2,0.1,0.3,0.2,0.5c2.9,7.4,7.2,14.1,12,21.8c8.8,14.3,20.4,4,23.2,6.1c2.8,2.2,4.8,2,14.5,2.9
	c4.8,0.4,9,6.1,11.2,12.4c2.2,6.3,2.6,13.1-0.1,15.9c-2.6,2.6-4,6.8-4,10.5c0,0,0,0,0.1-0.1c-0.1,4.3,1.7,8.1,5.8,8
	c7.6-0.2,9.9-6.4,11.4-12.3c2.2-9,0-21.4-2.7-33.7c-4.5-20.4,6.4-14.7,13.2-17.8c6.8-3.1,4.4-13.7,8-16.3c3.6-2.6,5.1,2.3,14.5-1.2
	c9.4-3.5-0.3-18.4,4.3-19c4.6-0.6,11.5,1.3,7.5-10.7c-4-12-3.9-14.6-2.1-24.4c-0.9-5.3-3.5-10.7-7.4-16.2c1.7,0.7,3.4,1.3,5,1.8
	c0,0,0,0,0,0c0.1,0,0.2,0.1,0.3,0.1c0.7,0.2,1.3,0.4,2,0.7c0.2,0.1,0.5,0.1,0.7,0.2c0.6,0.2,1.1,0.3,1.7,0.5
	c0.3,0.1,0.5,0.1,0.8,0.2c0.6,0.2,1.1,0.3,1.7,0.5c0.2,0.1,0.4,0.1,0.7,0.2c0.7,0.2,1.4,0.4,2.1,0.5c0.1,0,0.1,0,0.2,0.1
	c0.8,0.2,1.5,0.3,2.3,0.5c0.2,0,0.3,0.1,0.5,0.1c0.6,0.1,1.2,0.2,1.8,0.3c0.2,0,0.5,0.1,0.7,0.1c0.5,0.1,1.1,0.2,1.6,0.3
	c0.2,0,0.5,0.1,0.7,0.1c0.6,0.1,1.1,0.1,1.7,0.2c0.2,0,0.4,0,0.5,0.1c1.5,0.2,2.9,0.3,4.4,0.3c0.2,0,0.4,0,0.6,0c0.5,0,1,0,1.5,0
	c0.2,0,0.5,0,0.7,0c0.5,0,1,0,1.5,0c0.2,0,0.4,0,0.7,0c0.6,0,1.1-0.1,1.6-0.1c0.1,0,0.3,0,0.4,0c0.7-0.1,1.4-0.1,2-0.2
	c0.1,0,0.3,0,0.4-0.1c0.5-0.1,1.1-0.1,1.6-0.2c0.2,0,0.4-0.1,0.6-0.1c0.4-0.1,0.9-0.2,1.3-0.3c0.2,0,0.4-0.1,0.7-0.1
	c0.4-0.1,0.9-0.2,1.3-0.3c0.2-0.1,0.4-0.1,0.6-0.2c0.6-0.2,1.2-0.3,1.7-0.5c0,0,0.1,0,0.1,0c0.6-0.2,1.2-0.4,1.8-0.6
	c0.2-0.1,0.3-0.1,0.5-0.2c0.4-0.2,0.9-0.3,1.3-0.5c0.2-0.1,0.4-0.2,0.6-0.3c0.4-0.2,0.8-0.4,1.2-0.6c0.2-0.1,0.4-0.2,0.6-0.3
	c0.4-0.2,0.8-0.4,1.2-0.7c0.2-0.1,0.3-0.2,0.5-0.3c0.6-0.3,1.1-0.7,1.6-1c0.1-0.1,0.2-0.1,0.2-0.2c0.5-0.3,0.9-0.6,1.4-1
	c0.2-0.1,0.3-0.3,0.5-0.4c0.3-0.3,0.7-0.5,1-0.8c0.2-0.2,0.4-0.3,0.5-0.5c0.3-0.3,0.7-0.6,1-0.9c0.2-0.2,0.3-0.3,0.5-0.5
	c0.4-0.4,0.8-0.7,1.1-1.1c0.1-0.1,0.2-0.2,0.3-0.3c0.5-0.5,0.9-1,1.4-1.5c0.1-0.1,0.2-0.3,0.3-0.4c0.3-0.4,0.7-0.8,1-1.2
	c0.2-0.2,0.3-0.4,0.5-0.6c0.3-0.4,0.6-0.8,0.8-1.2c0.1-0.2,0.3-0.4,0.4-0.7c0.3-0.4,0.6-0.8,0.8-1.3c0.1-0.2,0.2-0.4,0.4-0.6
	c0.4-0.6,0.8-1.3,1.1-2c1.3-2.4,2.6-4.7,3.9-6.8c19.9-31.8,42.7-32.8,66-53.1c0.1-0.1,0.2-0.2,0.4-0.3c0.2-0.2,0.5-0.4,0.7-0.7
	c0.1-0.1,0.3-0.3,0.4-0.4c0.2-0.2,0.4-0.4,0.6-0.6c0.1-0.2,0.2-0.3,0.4-0.5c0.2-0.2,0.3-0.4,0.5-0.6c0.1-0.2,0.2-0.3,0.3-0.5
	c0.1-0.2,0.3-0.4,0.4-0.6c0.1-0.2,0.2-0.3,0.3-0.5c0.1-0.2,0.2-0.4,0.3-0.6c0.1-0.2,0.2-0.4,0.2-0.5c0.1-0.2,0.2-0.4,0.2-0.6
	c0.1-0.2,0.1-0.4,0.2-0.6c0.1-0.2,0.1-0.4,0.2-0.6c0.1-0.2,0.1-0.4,0.1-0.6c0-0.2,0.1-0.4,0.1-0.6c0-0.2,0.1-0.4,0.1-0.6
	c0-0.2,0-0.4,0.1-0.6c0-0.2,0-0.4,0-0.6C977.7,424.2,977.7,424,977.7,423.8z"/>
<path fill="#444242" d="M341.5,547.3c-3.2,5.3-8,9.7-11.9,12.8c14.8-13.5,14.1-32,13.3-34.1c-2.6-7.1,2.2,5-5.3,21.1
	c-2.6,5.6-6.9,10.5-10.4,13.9c-0.9-0.5-2-0.6-3.1-0.3c-1,0.3-1.7,0.9-2.2,1.6c-0.4,0.2-0.9,0.5-1.3,0.8c0,0-1.4,0.7-1.6,2.4
	c-0.4-0.1-0.9-0.3-1-0.4c0.2,0.2,0.4,0.3,0.5,0.5c0,0,0,0,0,0c-0.2-0.1-0.4-0.2-0.5-0.2c0,0,0,0,0.1,0.1c-0.1,0-0.2-0.1-0.3-0.1
	c75.8-123.6,58-207.4,55.5-219.5c-2.2-10.8-8.8-8.8-13.3-7.5c0,0,0,0-0.1-0.1c0,0,0,0,0.1,0.1c-0.7,0.2-1.3,0.4-1.9,0.5
	c-4.3,0.9-12.4,5.5-16.1,7.3c-3.7,1.8-7.8,8.2-12.7,12.4c-5,4.2-9.9,13.9-12.7,15.8c-10.9,7.3-10.9,11.8-14.9,18.2
	c-4,6.4-14.9,6.7-20.5,16.4c-4.3,7.5-7.7,8.1-11.7,11.9c-18.3-28.3-36.4-44.6-40.3-48.7c-6.6-7.3-10.8-4.6-13.7-2.7c0,0-0.1,0-0.1,0
	c0,0,0,0,0.1,0c-0.4,0.3-0.8,0.5-1.2,0.7c-3,1.5-7.5,6.4-9.7,8.5c-2.3,2.1-2.9,7.5-5.2,11.5c-2.4,4.1-2.5,12.1-4.2,13.9
	c-6.6,7.5-4.6,10.8-5.5,16.2c-0.9,5.4-11.2,7.9-12.3,16.1c-1.1,8.2-6.1,7.7-8.3,15.1c-2.2,7.4,5.2,25.1,6.2,30.4
	c0.7,3.6,11.8,9.5,24.9,15.4c-0.1,0.1-0.1,0.2-0.2,0.2c-10.2-2.3-23.1-3.1-40.3-1.7c-16.6,1.4-26.2,9.9-31.6,20.4
	c-0.1,0-0.2,0-0.3-0.1c0.1,0,0.2,0.1,0.3,0.1c-7.9,15.3-6.9,34.7-5.7,41.9c1.3,8-2,16,5,34.7c3.5,9.3,11.7,19.5,19.8,37.3
	c2.8,6.3,11,10.7,14.6,14.8c10.2,11.6,14.6,14.3,17.5,13.1c1.4-0.6,3.7-2.3,6.3-4.3c2.4,4.7,4.3,6,6.2,5.5c2-0.5,6.1-2.8,10.4-5.3
	c4.3-2.6,8.1-0.7,17.3-10.5c12.8-13.7,35.3-30.5,47.2-38.5c0.9-0.6,2-1.3,3-2c-0.3,0.4-0.4,0.7-0.2,1.1c-0.6-0.2-1.4-0.2-2.4,0.7
	c-0.8,0.7-1.1,1.3-1,1.9c-0.2-0.1-0.4-0.1-0.7,0c-0.6,0.2-0.9,0.9-1.1,2.3c-0.1-0.1-0.3-0.1-0.4-0.1c-0.3,0.1-0.7,0.4-1.2,2.2
	c-0.3,1.2-0.8,3.4-0.1,4.2c0.1,0.1,0.3,0.3,0.6,0.3c-0.1,0.3,0.1,0.6,0.2,0.7c0.7,0.8,2.9,0.9,4.2,0.8c1.9-0.1,2.3-0.4,2.4-0.7
	c0-0.1,0.1-0.2,0-0.4c1.4,0.2,2.2,0,2.5-0.5c0.1-0.2,0.1-0.4,0.1-0.6c0.5,0.2,1.2,0.2,2.2-0.5c1-0.7,1.2-1.5,1.2-2.1
	c0.7,0.4,1.2,0.1,2.5-0.7l0.8-0.5c0.8-0.5,1.3-1,1.5-1.8c0.1-0.4,0.1-0.7,0.1-1c1.1,0.8,2.2,0,3.3-0.9c0.5-0.4,1.2-0.9,1.9-1.3
	c1.4-0.7,1.6-1.8,1.5-2.7c0.7,0.5,1.3,0,2.8-0.9c0.4-0.3,0.8-0.6,1.4-0.9c2.5-1.6,2.7-3.2,2.5-4.2c1.5,0.8,2.5-0.2,4.5-2
	c0.3-0.3,0.6-0.5,0.9-0.9c1-0.9,1.5-1.6,1.6-2.4c0,0,0.1,0,0.1,0c0.3,0,0.6-0.3,1.1-0.8c0.3-0.3,0.7-0.7,1.2-1.1c0.1,0,0.2,0,0.3,0
	c-0.3,0.3-0.5,0.6-0.8,0.9c0.6-0.3,1.3-0.7,1.9-1c-0.3,0.4-0.6,0.7-0.9,1.1c0.7-0.4,1.4-0.8,2.1-1.2c-0.1,0.3-0.2,0.5-0.3,0.8
	c0.4-0.4,0.7-0.7,1.1-0.9c0,0.1-0.1,0.2-0.1,0.2c0.2-0.2,0.3-0.3,0.5-0.5c0.5-0.2,0.9-0.2,1.3,0c0.2-0.3,0.4-0.5,0.6-0.8
	c0,0,0.1,0,0.1,0c0,0.1,0,0.3,0,0.4c0.3-0.3,0.6-0.5,1-0.8c0,0,0,0.1,0,0.1c0.1-0.1,0.2-0.2,0.3-0.2c-0.1,0.2-0.2,0.4-0.3,0.6
	c0.3-0.2,0.7-0.5,1-0.7c0,0,0,0.1,0,0.1c0.3-0.2,0.5-0.4,0.8-0.5c-0.1,0.2-0.2,0.5-0.2,0.7c0.4-0.5,0.8-0.9,1.2-1.4
	c-0.1,0.3-0.2,0.5-0.3,0.8c0.1-0.1,0.2-0.3,0.4-0.4c0,0.1-0.1,0.3-0.1,0.4c0.4-0.6,0.9-1.1,1.3-1.7c-0.1,0.3-0.2,0.7-0.3,1
	c0.1-0.1,0.2-0.3,0.3-0.4c0,0,0,0,0,0.1c0.1-0.2,0.5-0.6,1-1.1c0,0.1,0,0.2,0,0.3c-0.2,0.4-0.4,0.8-0.6,1.1c0.2-0.1,0.3-0.3,0.5-0.4
	c-0.2,0.4-0.4,0.9-0.7,1.2c0.6-0.5,1.2-1.1,1.8-1.6c-0.4,0.5-0.8,1-1.2,1.5c0.5-0.5,1.1-0.9,1.6-1.4c0,0.1-0.1,0.1-0.1,0.2
	c0.1-0.1,0.2-0.2,0.3-0.4c0.1-0.1,0.2-0.2,0.3-0.3c-0.2,0.5-0.4,1-0.7,1.5c0.6-0.9,1.4-1.8,2-2.7c-0.1,0.3-0.1,0.6-0.2,0.8
	c1.5-1.5,1.9-2.4,2.6-4.3c0,0.1,0,0.1,0,0.2c0.1-0.2,0.1-0.4,0.2-0.5c0,0.4,0,0.7,0,1.1c0.3-0.8,0.6-1.7,0.8-2.6c0,0.1,0,0.1,0,0.2
	c0-0.1,0-0.1,0-0.2c0.1,0.2,0.1,0.4,0.2,0.6c0.1-0.6,0.2-1.3,0.4-1.9c0,0.1,0.1,0.1,0.1,0.2c0,0,0-0.1,0-0.1
	c0.1,0.1,0.1,0.3,0.2,0.4c0.5-1.3,0.2-0.8,0.6-1.8c0,0,0,0.1,0,0.1c0.1-0.2,0.1-0.4,0.2-0.5c0,0.3,0.1,0.5,0.1,0.8
	c0.1-0.4,0.2-0.7,0.3-1.1c0,0.1,0.1,0.2,0.1,0.2c0-0.1,0-0.3,0-0.4c0.1,0.2,0.2,0.5,0.3,0.7c0-0.3,0.1-0.7,0.1-1c0,0,0,0,0,0
	c0,0,0-0.1,0-0.1c0-0.1,0-0.2,0-0.3c0.1,0.2,0.2,0.4,0.3,0.7c0-0.5-0.1-1-0.1-1.5c0,0.1,0.1,0.1,0.1,0.2c0-0.1,0-0.2,0-0.3
	c0.1,0.2,0.3,0.3,0.4,0.5c0-0.3,0-0.7,0-1c0.1,0.2,0.3,0.4,0.4,0.6c0-0.1-0.1-0.6-0.1-1c1.8,0.2,2.8-1,2.8-1
	c2.7-2.2,2.6-5.9,2.6-5.9c0.2-1.9-0.9-2.6-1.1-2.8c0-0.1-0.1-0.3-0.3-0.5c-0.2-0.5-0.5-0.9-0.8-1.2c19.7-11.6,21.2-32.6,20.7-35
	C347.3,519.6,350.8,532.1,341.5,547.3z"/>
<path fill="#444242" d="M1343.8,38.3c-5.4-15.7-50.1-10.2-100,26.5c-57.2,41.9-83.7,84.2-88.8,96.8c-0.2-0.1-0.4-0.3-0.7-0.4
	c0.1,0,0.1,0,0.2,0c-0.1-0.1-0.2-0.1-0.2-0.2c0.2,0,0.4,0,0.6,0c-0.3-0.2-0.5-0.3-0.8-0.5c0.2,0,0.4,0,0.7,0.1
	c-0.1,0-0.3-0.2-0.6-0.3c0.1-0.1,0.2-0.1,0.3-0.2c1-1.1,0.7-2.3,0.7-2.3l-0.1-0.3l0,0c0.5-0.5,0.9-1.1,0.9-1.8
	c0-1.4-1.2-2.5-2.7-2.5c-0.2,0-0.5,0-0.7,0.1l0,0l-0.3-0.3c-0.6-0.5-1.1-0.8-1.6-0.9c1.1-6.1,4.1-21.2,9.9-32
	c11.1-20.5,23.2-21.3,16.2-20.5c-2.4,0.3-22.8,13.6-26.3,52.5c-0.2,0-0.3,0-0.4,0c-0.3,0-0.5,0-0.7,0.1c-0.2,0-0.4-0.1-0.7-0.1
	c-0.1,0-0.3,0-0.5,0c-3.5-38.8-24-52.2-26.3-52.5c-7-0.8,5.1,0,16.2,20.5c5.8,10.8,8.9,25.9,10,32c-0.5,0.1-1,0.3-1.5,0.8l-0.3,0.3
	l0,0.1c-0.2-0.1-0.5-0.1-0.8-0.1c-1.5,0-2.7,1.1-2.7,2.5c0,0.7,0.4,1.4,0.9,1.8l-0.1,0.3c0,0.1-0.3,1.3,0.7,2.3
	c0.1,0.1,0.2,0.1,0.2,0.2c-0.3,0.2-0.5,0.3-0.6,0.3c0.2,0,0.4,0,0.7-0.1c0,0,0,0-0.1,0c-0.2,0.1-0.3,0.2-0.4,0.2c0,0,0.1,0,0.1,0
	c-0.1,0.1-0.3,0.2-0.4,0.3c0.2,0,0.3,0,0.5,0c-0.1,0.1-0.2,0.1-0.2,0.2c0.1,0,0.2,0,0.3,0c-0.2,0.1-0.4,0.3-0.7,0.4
	c-5.1-12.6-31.5-54.9-88.8-96.8c-50-36.6-94.6-42.2-100-26.5c-2.6,7.7,15.5,23.2,19.2,26.5C985.8,75.3,989,86.9,991,99
	c2,12.1,9.4-0.9,10.3,43.6c0.5,25,8.4,29.2,26.5,30.8c5.5,0.5,18.6,1.6,34.2,2.4c0,0-0.1,0-0.1,0c-1,0.4-2.1,0.7-3.1,1.1
	c-0.1,0-0.2,0.1-0.3,0.1c-1.1,0.4-2.2,0.9-3.3,1.4c-0.2,0.1-0.5,0.2-0.7,0.3c-1.1,0.5-2.2,1-3.3,1.5c-0.2,0.1-0.3,0.2-0.5,0.2
	c-1,0.5-2,1-3,1.5c-0.2,0.1-0.3,0.2-0.5,0.2c-1.1,0.6-2.1,1.2-3.2,1.8c-0.2,0.1-0.4,0.3-0.7,0.4c-1.1,0.6-2.1,1.3-3.2,2
	c-0.1,0.1-0.2,0.1-0.3,0.2c-1,0.7-2,1.3-3,2.1c-0.2,0.1-0.4,0.3-0.6,0.4c-1,0.7-2,1.5-3,2.3c-0.2,0.2-0.4,0.3-0.6,0.5
	c-1,0.8-2.1,1.7-3.1,2.6c-0.2,0.2-0.3,0.3-0.5,0.5c0,0-0.1,0.1-0.1,0.1c-0.2,0.2-0.4,0.4-0.6,0.6c-4.1,3.8-9.1,7.8-10.6,25.8
	c0,0,0,0,0,0c0,0.4-0.1,0.7-0.1,1.1c0,0,0,0,0,0c-0.4,5.2-0.5,11.5-0.2,19.3c2.9,14.1,9.8,23.3,16,28.9c6.2,5.6,6.5,10.4,18.5,16.3
	c12,5.9,18.5,4.4,23.3,7c3.9,2.2,14,5.1,24.6-2.4c-0.1,0.1-0.1,0.2-0.2,0.3c1.5-1.1,3.1-2.5,4.6-4c0.6-0.6,1.3-1.3,1.9-2
	c5.8-6.6,14.5-14,21.7-26.8c8.7-15.3,9.2-37.1,11.8-46.4c2.9-10.7,3.3-26.1,2-34.4c0.1-0.2,0.2-0.4,0.3-0.6c0,0.5,0,1,0,1.4
	c0.1-0.1,0.2-0.2,0.3-0.3c0,0,0,0,0.1,0c-0.1,0.3-0.2,0.6-0.3,0.9c0.7,0.1,1,1,0.8,2.3c0.1-0.2,0.3-0.4,0.4-0.6
	c0.1,0.7,0.2,1.3,0.3,2c0.1-0.4,0.2-0.8,0.3-1.2c0.1,0.6,0.2,1.2,0.4,1.7c0.1-0.3,0.1-0.6,0.2-1c0.1,0.1,0.1,0.2,0.2,0.3
	c0,0.5-0.1,0.9-0.1,1.2c-0.1,0.6-0.1,0.9,0.1,1.1c0,0,0.1,0.1,0.1,0.1c-0.5,0.5-0.8,1.2-0.9,2.3c0,0.4-0.1,0.7-0.1,1
	c-0.2,2.2-0.3,3.4,1.1,4c-0.8,0.4-1.9,1.4-1.7,3.8c0.1,0.5,0.1,1,0.1,1.4c0.1,1.4,0.2,2.1,0.9,2.3c-0.7,0.4-1.4,1.1-1.1,2.4
	c0.1,0.6,0.1,1.3,0.1,1.9c0,1.2,0,2.3,1.2,2.6c-0.2,0.1-0.5,0.3-0.7,0.6c-0.4,0.5-0.6,1.1-0.4,1.9l0.1,0.8c0.2,1.2,0.3,1.7,0.9,2
	c-0.5,0.3-0.9,0.8-0.9,1.9c0.1,0.9,0.3,1.4,0.8,1.7c-0.2,0.1-0.3,0.2-0.4,0.4c-0.2,0.5,0.1,1.1,1.1,1.9c-0.1,0.1-0.2,0.1-0.3,0.2
	c-0.1,0.2-0.1,0.6,0.9,1.9c0.7,0.9,2,2.3,3,2.3c0.2,0,0.4,0,0.6-0.2c0.2,0.2,0.4,0.2,0.6,0.2c1,0,2.3-1.4,3-2.3c1-1.3,1-1.7,0.9-1.9
	c0-0.1-0.1-0.2-0.3-0.2c0.9-0.8,1.3-1.5,1.1-1.9c-0.1-0.2-0.2-0.3-0.4-0.4c0.4-0.2,0.8-0.7,0.8-1.7c0.1-1-0.4-1.6-0.9-1.9
	c0.7-0.2,0.8-0.7,0.9-2l0.1-0.8c0.1-0.8,0-1.4-0.4-1.9c-0.2-0.2-0.5-0.4-0.7-0.6c1.2-0.3,1.2-1.4,1.2-2.6c0-0.6,0-1.2,0.1-1.9
	c0.3-1.3-0.4-2-1.1-2.4c0.7-0.2,0.8-0.8,0.9-2.3c0-0.4,0.1-0.8,0.1-1.4c0.3-2.5-0.8-3.4-1.7-3.8c1.4-0.6,1.3-1.7,1.1-4
	c0-0.3-0.1-0.7-0.1-1c-0.1-1.1-0.4-1.8-0.9-2.3c0,0,0.1,0,0.1-0.1c0.2-0.2,0.2-0.5,0.1-1.1c-0.1-0.3-0.1-0.8-0.1-1.3
	c0-0.1,0.1-0.1,0.1-0.2c0.1,0.3,0.1,0.6,0.2,1c0.1-0.6,0.2-1.2,0.4-1.7c0.1,0.4,0.2,0.8,0.3,1.2c0.1-0.7,0.2-1.3,0.3-2
	c0.1,0.2,0.3,0.4,0.4,0.6c-0.1-0.4-0.1-0.8,0-1.1c0,0.1,0.1,0.1,0.1,0.2c0-0.2,0-0.4-0.1-0.6c0.1-0.5,0.4-0.7,0.8-0.8
	c-0.1-0.3-0.2-0.6-0.2-0.8c0,0,0.1,0,0.1-0.1c0.1,0.1,0.2,0.2,0.3,0.3c0-0.3,0-0.7,0-1c0,0,0.1,0,0.1,0.1c0-0.1,0-0.2,0-0.3
	c0.1,0.2,0.2,0.3,0.3,0.5c0-0.3,0-0.7,0-1c0,0,0,0,0,0.1c0-0.3,0-0.5,0-0.8c0.1,0.1,0.1,0.2,0.2,0.3c-1.6,7.8-1.3,24.4,1.7,35.8
	c2.5,9.3,3.1,31.1,11.8,46.4c7.2,12.8,15.9,20.2,21.7,26.8c0.6,0.7,1.3,1.4,1.9,2c1.5,1.6,3.1,2.9,4.6,4c-0.1-0.1-0.1-0.2-0.2-0.3
	c10.6,7.5,20.6,4.6,24.6,2.4c4.7-2.6,11.3-1.1,23.3-7c12-5.9,12.4-10.7,18.5-16.3c6.2-5.6,13.1-14.8,16-28.9
	c0.3-7.8,0.2-14.1-0.2-19.3c0,0,0,0,0,0c0-0.4-0.1-0.8-0.1-1.1c0,0,0,0,0,0c-1.5-18-6.4-21.9-10.6-25.8c-0.2-0.2-0.4-0.4-0.6-0.6
	c0,0-0.1-0.1-0.1-0.1c-0.2-0.2-0.3-0.3-0.5-0.5c-1-0.9-2-1.7-3.1-2.6c-0.2-0.2-0.4-0.3-0.6-0.5c-1-0.8-2-1.6-3-2.3
	c-0.2-0.1-0.4-0.3-0.6-0.4c-1-0.7-2-1.4-3-2.1c-0.1-0.1-0.2-0.1-0.3-0.2c-1.1-0.7-2.1-1.4-3.2-2c-0.2-0.1-0.4-0.3-0.7-0.4
	c-1.1-0.6-2.1-1.2-3.2-1.8c-0.2-0.1-0.3-0.2-0.5-0.2c-1-0.5-2-1-3-1.5c-0.2-0.1-0.3-0.2-0.5-0.2c-1.1-0.5-2.2-1-3.3-1.5
	c-0.2-0.1-0.5-0.2-0.7-0.3c-1.1-0.5-2.2-0.9-3.3-1.4c-0.1,0-0.2-0.1-0.3-0.1c-1-0.4-2.1-0.8-3.1-1.1c0,0,0,0-0.1,0
	c15.6-0.8,28.7-1.9,34.2-2.4c18.1-1.6,26-5.7,26.5-30.8c0.9-44.5,8.2-31.5,10.3-43.6c2-12.1,5.2-23.7,17.1-34.2
	C1328.3,61.5,1346.4,46,1343.8,38.3z"/>
<path fill="#444242" d="M868.7,45.6c-8.1-14.1-45.4-13.2-89.9,23.8c-51.7,42.9-75.2,86.1-79.3,98.2c-0.2-0.2-0.3-0.5-0.5-0.7
	c0.2,0.1,0.4,0.1,0.5,0.2c-0.7-1.4-0.3-0.5-0.9-2c0.2,0.1,0.4,0.3,0.6,0.4c-0.2-0.4-0.4-0.8-0.6-1.2c0.2,0.1,0.4,0.2,0.6,0.3
	c-0.3-0.3-0.5-0.7-0.8-1c0.2,0.1,0.4,0.1,0.6,0.2c-0.4-0.4-0.8-0.7-1.2-1.1c0.2,0,0.4,0,0.6,0c-0.2-0.2-0.4-0.4-0.6-0.6
	c0.2,0,0.4,0.1,0.6,0.1c-0.1,0-0.3-0.2-0.5-0.4c0.1-0.1,0.2-0.2,0.2-0.3c0.8-1.3,0.6-2.8,0.6-2.8l-0.1-0.4l0,0
	c0.4-0.5,0.7-1.3,0.7-2.2c0-1.7-1-3-2.3-3c-0.2,0-0.4,0-0.6,0.1l0,0l-0.2-0.3c-0.4-0.5-0.7-0.8-1-0.9c1.1-4.6,3.6-13.3,8-19.6
	c9.3-13.5,19.4-14,13.5-13.5c-1.9,0.2-18.4,8.6-21.9,33c-0.2-0.1-0.4-0.1-0.5-0.1c-0.2,0-0.4,0.1-0.6,0.1c-0.1,0-0.3-0.1-0.6-0.1
	c-0.2,0-0.4,0-0.6,0.1c-3.4-24.4-19.9-32.8-21.9-33c-5.9-0.5,4.2,0,13.5,13.5c4.4,6.4,6.9,15.1,8,19.7c-0.3,0.2-0.6,0.4-1,0.9
	l-0.2,0.3l0,0.1c-0.2-0.1-0.4-0.1-0.6-0.1c-1.2,0-2.3,1.3-2.3,3c0,0.9,0.3,1.7,0.8,2.2l-0.1,0.3c0,0.1-0.2,1.5,0.6,2.8
	c0.1,0.1,0.1,0.1,0.2,0.2c-0.2,0.2-0.5,0.4-0.5,0.4c0.2,0,0.4-0.1,0.6-0.1c-0.2,0.2-0.4,0.4-0.6,0.6c0.2,0,0.4,0,0.6,0
	c-0.4,0.4-0.8,0.7-1.2,1.1c0.2-0.1,0.4-0.1,0.6-0.2c-0.3,0.3-0.5,0.7-0.8,1c0.2-0.1,0.4-0.2,0.6-0.3c-0.2,0.4-0.4,0.8-0.6,1.2
	c0.2-0.1,0.4-0.3,0.6-0.4c-0.6,1.5-0.3,0.6-0.9,2c0.2-0.1,0.4-0.1,0.5-0.2c-0.2,0.2-0.3,0.5-0.5,0.7c-4.1-12.1-27.6-55.3-79.3-98.2
	c-44.5-36.9-81.9-37.9-89.9-23.8c-1.5,2.7,7.3,7.1,11.5,23c6,23,15.4,36.9,17.2,49.1c1.8,12.2,6.1,6.9,7.9,32.1
	c1.8,25.2,13.3,27.6,29.4,29.2c2.4,0.2,6.4,0.6,11.4,1.1c-6.6,3.7-13.1,8.4-19.1,14.3c-5.4,6.1-18.1,0.8-16.7,43.4
	c2.9,15.4,15.1,29.9,21.2,36c6.1,6.1,9.3,15.8,21.2,22.3c11.8,6.5,35.1,18.5,47.6-2.8c4.7-7.9,13.1-11.1,23.6-22.6
	c11.5-12.6,3-44.7,11.2-70.4c1.8-5.8,2.9-10.3,3.5-13.9c0.1,0.4,0,1,0,1.6c0.1-0.3,0.2-0.5,0.4-0.8c0.1,0.8,0.2,1.6,0.2,2.4
	c0.1-0.5,0.2-0.9,0.2-1.4c0.1,0.7,0.2,1.4,0.3,2.1c0.1-0.4,0.1-0.8,0.2-1.2c0.1,0.1,0.1,0.2,0.2,0.4c0,0.6-0.1,1.1-0.1,1.5
	c-0.1,0.7-0.1,1.1,0.1,1.3c0,0,0.1,0.1,0.1,0.1c-0.4,0.6-0.6,1.5-0.7,2.8c0,0.5-0.1,0.9-0.1,1.3c-0.2,2.7-0.3,4.1,0.9,4.8
	c-0.7,0.5-1.6,1.6-1.4,4.6c0,0.6,0.1,1.2,0.1,1.7c0.1,1.8,0.2,2.5,0.8,2.8c-0.6,0.5-1.2,1.3-1,2.9c0.1,0.8,0.1,1.6,0.1,2.3
	c0,1.4,0,2.8,1,3.1c-0.2,0.2-0.4,0.4-0.6,0.7c-0.3,0.6-0.5,1.4-0.4,2.3l0.1,0.9c0.2,1.5,0.2,2.1,0.8,2.4c-0.4,0.4-0.8,1-0.7,2.3
	c0,1.1,0.3,1.7,0.7,2c-0.2,0.1-0.3,0.3-0.3,0.5c-0.2,0.6,0.1,1.3,0.9,2.3c-0.1,0.1-0.2,0.2-0.2,0.2c-0.1,0.3-0.1,0.8,0.8,2.3
	c0.6,1,1.7,2.8,2.5,2.8c0.1,0,0.3,0,0.5-0.3c0.2,0.2,0.4,0.3,0.5,0.3c0.8,0,1.9-1.7,2.5-2.8c0.9-1.6,0.9-2.1,0.7-2.3
	c0-0.1-0.1-0.2-0.2-0.2c0.8-1,1.1-1.8,0.9-2.3c-0.1-0.2-0.2-0.4-0.3-0.5c0.4-0.3,0.7-0.8,0.7-2c0-1.2-0.3-1.9-0.7-2.3
	c0.6-0.3,0.6-0.9,0.8-2.4l0.1-0.9c0.1-0.9,0-1.7-0.4-2.3c-0.2-0.3-0.4-0.5-0.6-0.7c1-0.4,1-1.7,1-3.1c0-0.7,0-1.5,0.1-2.3
	c0.2-1.6-0.3-2.4-0.9-2.9c0.6-0.2,0.6-1,0.8-2.8c0-0.5,0.1-1,0.1-1.7c0.2-3-0.7-4.2-1.4-4.6c1.2-0.7,1.1-2.1,0.9-4.8
	c0-0.4-0.1-0.8-0.1-1.3c-0.1-1.3-0.3-2.2-0.7-2.8c0,0,0.1-0.1,0.1-0.1c0.2-0.3,0.1-0.7,0.1-1.3c0-0.4-0.1-1-0.1-1.6
	c0-0.1,0.1-0.2,0.1-0.2c0.1,0.4,0.1,0.8,0.2,1.2c0.1-0.7,0.2-1.4,0.3-2.1c0.1,0.5,0.2,0.9,0.2,1.4c0.1-0.8,0.2-1.6,0.2-2.4
	c0.1,0.3,0.2,0.5,0.4,0.8c-0.1-0.7-0.1-1.3,0-1.8c0.6,3.6,1.7,8.2,3.5,14c8.2,25.7-0.3,57.8,11.2,70.4
	c10.5,11.5,18.9,14.7,23.6,22.6c12.5,21.2,35.8,9.3,47.6,2.8c11.8-6.5,15.1-16.2,21.2-22.3c6.1-6.1,18.3-20.6,21.2-36
	c1.4-42.6-11.3-37.3-16.7-43.4c-6-5.9-12.5-10.6-19.1-14.3c5.1-0.4,9-0.8,11.4-1.1c16.1-1.6,27.6-4.1,29.4-29.2
	c1.8-25.2,6.1-19.9,7.9-32.1c1.8-12.2,11.2-26.1,17.2-49.1C861.4,52.7,870.2,48.3,868.7,45.6z"/>
<path fill="#444242" d="M442.8,52.4c-1.5-5.9-28-28-78.6-8.4c-68.6,26.6-100.8,82.4-106.3,92.9c-0.7-1-0.5-0.6-1-1.5
	c0,0,0.1,0,0.1,0.1c-0.1-0.2-0.2-0.3-0.4-0.5c0,0,0,0,0,0c0.3,0.2,0.5,0.3,0.8,0.5c-0.2-0.3-0.5-0.7-0.7-1c0.1,0,0.2,0.1,0.3,0.1
	c-0.1-0.1-0.2-0.2-0.3-0.3c0.3,0.1,0.5,0.2,0.8,0.2c-0.3-0.3-0.6-0.5-0.8-0.8c0,0,0,0,0,0c0,0-0.1-0.1-0.1-0.1
	c-0.1-0.1-0.2-0.2-0.3-0.3c0.3,0.1,0.5,0.1,0.8,0.2c-0.5-0.3-1-0.6-1.4-1c0.1,0,0.2,0,0.2,0c-0.1-0.1-0.2-0.1-0.3-0.2
	c0.2,0,0.4,0,0.7,0c-0.3-0.2-0.6-0.4-0.9-0.7c0.3,0,0.5,0.1,0.8,0.1c-0.1,0-0.4-0.2-0.7-0.4c0.1-0.1,0.2-0.2,0.3-0.3
	c1.1-1.4,0.8-3,0.8-3.1l-0.1-0.4l0,0c0.6-0.6,1-1.5,1-2.4c0-1.8-1.5-3.3-3.2-3.3c-0.3,0-0.5,0-0.8,0.1l0,0l-0.4-0.4
	c-0.5-0.5-1-0.8-1.5-1c1.6-5,5.2-14.6,11.5-21.5c13.4-14.8,27.9-15.4,19.4-14.8c-2.8,0.2-26.5,9.5-31.4,36.2
	c-0.3-0.1-0.5-0.1-0.8-0.1c-0.3,0-0.6,0.1-0.8,0.1c-0.2-0.1-0.5-0.1-0.8-0.1c-0.2,0-0.5,0-0.9,0.1c-4.9-26.8-28.6-36-31.4-36.2
	c-8.4-0.6,6.1,0,19.4,14.8c6.3,7,9.9,16.6,11.5,21.6c-0.4,0.2-0.9,0.5-1.4,1l-0.4,0.4l0,0.1c-0.3-0.1-0.6-0.2-0.9-0.2
	c-1.8,0-3.2,1.5-3.2,3.3c0,1,0.4,1.8,1.1,2.4l-0.1,0.4c0,0.1-0.3,1.7,0.8,3.1c0.1,0.1,0.2,0.2,0.2,0.3c-0.3,0.2-0.6,0.4-0.7,0.4
	c0.3,0,0.5-0.1,0.8-0.1c0,0,0,0-0.1,0c-0.2,0.1-0.4,0.2-0.5,0.3c0,0,0.1,0,0.1,0c-0.2,0.1-0.3,0.2-0.5,0.4c0.2,0,0.4,0,0.6,0
	c-0.1,0.1-0.2,0.1-0.3,0.2c0.1,0,0.2,0,0.3,0c-0.5,0.3-1,0.6-1.4,1c0.3-0.1,0.5-0.1,0.8-0.2c0,0,0,0,0,0c-0.2,0.1-0.3,0.2-0.5,0.3
	c0.1,0,0.1,0,0.2,0c-0.3,0.3-0.6,0.6-0.9,0.9c0.2-0.1,0.4-0.1,0.6-0.2c-0.1,0.1-0.2,0.2-0.3,0.3c0.1,0,0.3-0.1,0.4-0.1
	c-0.2,0.4-0.5,0.7-0.7,1.1c0.2-0.1,0.4-0.2,0.6-0.4c-0.1,0.1-0.2,0.3-0.3,0.4c0.1-0.1,0.2-0.1,0.3-0.2c-0.5,1-0.3,0.6-1,1.6
	c-5.6-10.5-37.8-66.3-106.3-92.9c-50.6-19.6-77.1,2.4-78.6,8.4c-2.6,10.3,4.8,18.7,20.9,39.3c16.1,20.6,7.7,19.3,14.8,29.9
	c7.1,10.6,1,8,8.7,20.6c0,0,10.9,29.9,29.3,28.7c0,0-4.5,9.3-5.2,12.2c-0.6,2.9-6.8,5.5-7.1,11.9c-0.3,6.4,8,13.8,10.3,14.5
	c0,0-6.4,5.5-4.5,11.9c1.3,2.9,5.8,1.6,7.4,4.5c1.6,2.9,3.2,5.8,6.1,6.8c2.9,1-1,4.2,0,10.9c1,6.8,6.1,5.5,8.7,6.8
	c2.6,1.3,13.2,9.7,3.5,34.5c-6,15.4-13.4,22.5-15.3,28.2c-1.2,3.5,1.1,8.9,4,10.5c2.9,1.6,9,2.6,10.9-2.5c2-5.2,2.4-12.8,2.6-16.9
	c0.3-8.1,4.2-30.9,20.6-28.3c0,0,1.3,7.1,12.6,1c0,0,9,6.4,13.8,2.9c4.8-3.5,2.6-13.2,6.1-14.8c3.5-1.6,1,3.5,4.2,4.8
	c3.2,1.3,9-13.2,10-22.9c1-9.7,9.7-15.1,10-36.1c0.3-20.9,6.4-32.5,8.1-38c0.9-3.1,3.3-8.2,4.7-15.2c0.4,0.5,0.5,1.4,0.3,2.7
	c0.2-0.3,0.3-0.6,0.5-0.8c0.1,0.9,0.2,1.8,0.3,2.7c0.1-0.5,0.2-1,0.3-1.5c0.1,0.8,0.3,1.5,0.4,2.3c0.1-0.4,0.2-0.8,0.3-1.3
	c0.1,0.1,0.2,0.3,0.2,0.4c0,0.6-0.1,1.2-0.2,1.6c-0.1,0.7-0.2,1.2,0.1,1.5c0,0,0.1,0.1,0.1,0.1c-0.6,0.6-0.9,1.6-1,3
	c0,0.5-0.1,1-0.1,1.4c-0.3,2.9-0.4,4.5,1.3,5.2c-1,0.5-2.3,1.8-2,5.1c0.1,0.7,0.1,1.3,0.2,1.8c0.2,1.9,0.2,2.8,1.1,3
	c-0.9,0.5-1.7,1.5-1.4,3.2c0.2,0.9,0.2,1.7,0.2,2.5c0,1.5,0,3,1.4,3.4c-0.3,0.2-0.6,0.4-0.8,0.8c-0.5,0.7-0.7,1.5-0.5,2.5l0.1,1
	c0.2,1.6,0.3,2.3,1.1,2.6c-0.6,0.4-1.1,1.1-1,2.5c0.1,1.2,0.4,1.9,1,2.2c-0.2,0.1-0.4,0.3-0.5,0.5c-0.2,0.6,0.2,1.5,1.3,2.6
	c-0.2,0.1-0.3,0.2-0.3,0.3c-0.2,0.3-0.2,0.9,1.1,2.6c0.8,1.1,2.4,3.1,3.6,3.1c0.2,0,0.5-0.1,0.7-0.3c0.2,0.3,0.5,0.3,0.7,0.3
	c1.2,0,2.8-1.9,3.6-3.1c1.2-1.7,1.2-2.3,1.1-2.6c0-0.1-0.1-0.2-0.3-0.3c1.1-1.1,1.5-1.9,1.3-2.6c-0.1-0.2-0.3-0.4-0.5-0.5
	c0.5-0.3,0.9-0.9,1-2.2c0.1-1.4-0.5-2.1-1-2.5c0.8-0.3,0.9-1,1.1-2.6l0.1-1c0.1-1,0-1.8-0.5-2.5c-0.3-0.3-0.6-0.6-0.9-0.8
	c1.4-0.4,1.4-1.9,1.5-3.4c0-0.8,0-1.6,0.2-2.5c0.3-1.7-0.5-2.7-1.4-3.2c0.9-0.2,0.9-1.1,1.1-3c0-0.5,0.1-1.1,0.2-1.8
	c0.3-3.3-1-4.6-2-5.1c1.7-0.7,1.5-2.3,1.3-5.3c0-0.4-0.1-0.9-0.1-1.4c-0.1-1.4-0.4-2.4-1-3c0,0,0.1-0.1,0.1-0.1
	c0.3-0.3,0.2-0.7,0.1-1.5c-0.1-0.5-0.1-1.1-0.2-1.8c0.1-0.1,0.1-0.2,0.2-0.3c0.1,0.4,0.2,0.8,0.3,1.3c0.1-0.8,0.3-1.5,0.4-2.3
	c0.1,0.5,0.2,1,0.3,1.5c0.1-0.9,0.2-1.8,0.3-2.7c0.2,0.3,0.3,0.6,0.5,0.8c-0.1-0.6-0.1-1.1-0.1-1.5c0,0.1,0.1,0.2,0.1,0.2
	c0-0.3-0.1-0.5-0.1-0.8c0.1-0.3,0.2-0.5,0.3-0.7c1.4,7,3.8,12.2,4.7,15.3c1.6,5.5,7.7,17.1,8,38c0.3,20.9,9,26.4,10,36.1
	c1,9.7,6.8,24.2,10,22.9c3.2-1.3,0.6-6.4,4.2-4.8c3.5,1.6,1.3,11.3,6.1,14.8c4.8,3.5,13.8-2.9,13.8-2.9c11.3,6.1,12.6-1,12.6-1
	c16.4-2.6,20.3,20.3,20.6,28.3c0.2,4.1,0.7,11.7,2.6,16.9c1.9,5,8,4.1,10.9,2.5c2.9-1.6,5.2-7,4-10.5c-1.9-5.7-9.3-12.8-15.3-28.2
	c-9.7-24.8,1-33.2,3.5-34.5c2.6-1.3,7.7,0,8.7-6.8c1-6.8-2.9-10,0-10.9c2.9-1,4.5-3.9,6.1-6.8c1.6-2.9,6.1-1.6,7.4-4.5
	c1.9-6.4-4.5-11.9-4.5-11.9c2.3-0.6,10.6-8,10.3-14.5c-0.3-6.4-6.4-9-7.1-11.9c-0.6-2.9-5.2-12.2-5.2-12.2
	c18.4,1.3,29.3-28.7,29.3-28.7c7.7-12.6,1.6-10,8.7-20.6c7.1-10.6-1.3-9.3,14.8-29.9C438,71.1,445.4,62.7,442.8,52.4z"/>
<g>
	<g>
		<g>
			<path fill="#5B5B5F" d="M717.4,944.2c0.5,0,0.9,0.4,0.9,0.4l-7.5,16c-0.8,0-2.8,0.1-3.3,0.1c-0.5,0-0.9-0.4-0.9-0.4l-2.6-16
				c1.6,0,3.5-0.1,4.1-0.1c0.5,0,0.9,0.4,0.9,0.4l0.8,7.8c0.1,0.7,0.1,1.6,0,2.6c0.3-1.1,0.5-2.1,0.8-2.8l3.1-7.9
				C715.1,944.3,716.8,944.2,717.4,944.2L717.4,944.2z"/>
		</g>
		<g>
			<path fill="#5B5B5F" d="M725.1,952.1c0,1.7-1,2.9-3.4,3.4l-2.5,0.5c0.2,1.1,0.9,1.6,2,1.6c1.4,0,2.3-1.1,2.3-1.1s0.7,0.4,0.7,1.2
				c0,1.5-2.2,3-4.8,3c-2.6,0-4.4-1.7-4.4-4.5c0-3.2,2.3-7.6,6.4-7.6C723.7,948.8,725.1,950.1,725.1,952.1L725.1,952.1z
				 M720.8,953.8c0.5-0.2,0.7-0.6,0.7-1.1c0-0.5-0.2-1.2-0.7-1.2c-1,0-1.5,1.6-1.6,2.9L720.8,953.8z"/>
		</g>
		<g>
			<path fill="#5B5B5F" d="M732,948.8c2.1,0,3.6,1.1,3.6,2.5c0,1.8-2.2,2.4-2.2,2.4s-0.6-1.9-2.1-1.9c-1,0-1.5,1-1.5,3.1
				c0,1.9,0.5,2.8,1.8,2.8c1.3,0,2.1-0.9,2.1-0.9s0.7,0.4,0.7,1.2c0,1.4-2.1,2.9-4.6,2.9c-2.7,0-4.3-1.7-4.3-4.4
				C725.5,953.2,727.8,948.8,732,948.8L732,948.8z"/>
		</g>
		<g>
			<path fill="#5B5B5F" d="M741.9,946.2c0.5,0,0.8,0.4,0.8,0.4l-0.4,2.4h2.6l-0.6,1.9c-0.2,0.6-0.5,0.9-1.1,0.9h-1.4l-0.8,4.8
				c-0.1,0.8,0,1.1,0.6,1.1c0.5,0,0.9-0.3,0.9-0.3s0.7,0.4,0.7,1.2c0,1.2-1.7,2.3-3.8,2.3c-2.2,0-3.1-1.4-2.8-3.8l0.8-5.3h-1.4
				l0.6-1.9c0.2-0.5,0.6-0.9,1.1-0.9h0.7l0.8-2.3C740.5,946.5,741.4,946.2,741.9,946.2L741.9,946.2z"/>
		</g>
		<g>
			<path fill="#5B5B5F" d="M754.5,952.1c0,1.7-1,2.9-3.4,3.4l-2.5,0.5c0.2,1.1,0.9,1.6,2,1.6c1.4,0,2.3-1.1,2.3-1.1s0.7,0.4,0.7,1.2
				c0,1.5-2.2,3-4.8,3c-2.6,0-4.4-1.7-4.4-4.5c0-3.2,2.3-7.6,6.4-7.6C753.1,948.8,754.5,950.1,754.5,952.1L754.5,952.1z
				 M750.2,953.8c0.5-0.2,0.7-0.6,0.7-1.1c0-0.5-0.2-1.2-0.7-1.2c-1,0-1.5,1.6-1.6,2.9L750.2,953.8z"/>
		</g>
		<g>
			<path fill="#5B5B5F" d="M764.9,952.1c0,1.7-1,2.9-3.4,3.4l-2.5,0.5c0.2,1.1,0.9,1.6,2,1.6c1.4,0,2.3-1.1,2.3-1.1s0.7,0.4,0.7,1.2
				c0,1.5-2.2,3-4.8,3c-2.6,0-4.4-1.7-4.4-4.5c0-3.2,2.3-7.6,6.4-7.6C763.5,948.8,764.9,950.1,764.9,952.1L764.9,952.1z
				 M760.6,953.8c0.5-0.2,0.7-0.6,0.7-1.1c0-0.5-0.2-1.2-0.7-1.2c-1,0-1.5,1.6-1.6,2.9L760.6,953.8z"/>
		</g>
		<g>
			<path fill="#5B5B5F" d="M773.4,956.5c0,0,0.9,0.8,0.9,2.1c0,1.8-1.5,2.3-2.8,2.3c-1.7,0-2.9-0.8-4.1-1.2c-0.3,0.4-0.7,0.8-1,1.2
				c0,0-1.9,0-1.9-1.3c0-1.5,2.6-4.2,5.4-7.2c-0.3-0.1-0.6-0.1-0.9-0.1c-1.6,0-2.2,0.8-2.2,0.8s-0.8-0.9-0.7-2.1
				c0.1-1.7,1.7-2.1,3-2.1c1.3,0,2.3,0.5,3.3,0.9l0.8-0.9c0,0,1.9,0.1,1.9,1.3c0,1.5-2.5,4.1-5.2,7c0.6,0.2,1.1,0.3,1.6,0.3
				C772.7,957.4,773.4,956.5,773.4,956.5L773.4,956.5z"/>
		</g>
		<g>
			<path fill="#5B5B5F" d="M785.5,959.9c-0.7,4.1-3.5,6.2-7,6.2c-2.3,0-3.9-1.2-3.9-2.6c0-0.9,0.8-1.3,0.8-1.3s0.8,0.7,2.3,0.7
				c1.4,0,3.3-0.6,3.7-2.8l0.3-1.7c-1,1.4-2.2,2.5-3.8,2.5c-1.8,0-2.6-1.5-2.1-4.5l0.5-3.2c0.3-2,0.4-3.6,0.4-3.6
				c1.3-0.2,3-0.8,3.6-0.8c0.5,0,0.9,0.4,0.9,0.4l-0.6,4l-0.6,3.7c-0.1,0.3,0,0.5,0.3,0.5c1.5,0,2.3-4.3,2.3-4.3
				c0.3-2,0.4-3.6,0.4-3.6c1.3-0.2,3-0.8,3.6-0.8c0.5,0,0.9,0.4,0.9,0.4l-0.6,4L785.5,959.9z"/>
		</g>
	</g>
	<g>
		<path fill="#5B5B5F" d="M612.8,949.4h4c0.9,0,1.6,0.1,2.1,0.2c0.6,0.2,1.2,0.5,1.6,1s0.8,1.1,1,1.8c0.2,0.7,0.4,1.6,0.4,2.6
			c0,0.9-0.1,1.7-0.3,2.3c-0.3,0.8-0.7,1.4-1.2,1.9c-0.4,0.4-0.9,0.7-1.5,0.9c-0.5,0.2-1.1,0.2-1.9,0.2h-4.1V949.4z M615,951.3v7.2
			h1.6c0.6,0,1.1,0,1.3-0.1c0.4-0.1,0.7-0.2,0.9-0.5c0.2-0.2,0.4-0.6,0.6-1c0.1-0.5,0.2-1.1,0.2-2c0-0.8-0.1-1.5-0.2-1.9
			s-0.4-0.8-0.6-1.1c-0.3-0.3-0.6-0.4-1-0.5c-0.3-0.1-0.9-0.1-1.8-0.1H615z"/>
		<path fill="#5B5B5F" d="M628,957.8l2.1,0.3c-0.3,0.8-0.7,1.3-1.3,1.7c-0.6,0.4-1.3,0.6-2.2,0.6c-1.4,0-2.4-0.4-3-1.3
			c-0.5-0.7-0.8-1.6-0.8-2.7c0-1.3,0.3-2.3,1-3.1c0.7-0.7,1.5-1.1,2.6-1.1c1.2,0,2.1,0.4,2.8,1.2c0.7,0.8,1,2,1,3.6H625
			c0,0.6,0.2,1.1,0.5,1.4c0.3,0.3,0.7,0.5,1.2,0.5c0.3,0,0.6-0.1,0.8-0.3C627.8,958.5,627.9,958.2,628,957.8z M628.2,955.7
			c0-0.6-0.2-1.1-0.5-1.4c-0.3-0.3-0.7-0.5-1.1-0.5c-0.5,0-0.8,0.2-1.1,0.5c-0.3,0.3-0.4,0.8-0.4,1.3H628.2z"/>
		<path fill="#5B5B5F" d="M630.9,958l2.1-0.3c0.1,0.4,0.3,0.7,0.5,0.9c0.3,0.2,0.7,0.3,1.1,0.3c0.5,0,0.9-0.1,1.2-0.3
			c0.2-0.1,0.3-0.3,0.3-0.6c0-0.2,0-0.3-0.1-0.4c-0.1-0.1-0.3-0.2-0.7-0.3c-1.7-0.4-2.7-0.7-3.2-1c-0.6-0.4-0.9-1-0.9-1.8
			c0-0.7,0.3-1.3,0.8-1.7c0.5-0.5,1.4-0.7,2.5-0.7c1.1,0,1.9,0.2,2.4,0.5c0.5,0.4,0.9,0.9,1.1,1.6l-2,0.4c-0.1-0.3-0.2-0.5-0.5-0.7
			c-0.2-0.2-0.6-0.2-1-0.2c-0.5,0-0.9,0.1-1.2,0.2c-0.2,0.1-0.2,0.2-0.2,0.4c0,0.1,0.1,0.3,0.2,0.4c0.2,0.1,0.8,0.3,1.9,0.6
			c1.1,0.3,1.9,0.6,2.3,0.9c0.4,0.4,0.7,0.9,0.7,1.5c0,0.7-0.3,1.3-0.9,1.9c-0.6,0.5-1.5,0.8-2.7,0.8c-1.1,0-1.9-0.2-2.5-0.7
			C631.5,959.4,631.1,958.8,630.9,958z"/>
		<path fill="#5B5B5F" d="M639.8,951.3v-1.9h2.1v1.9H639.8z M639.8,960.3v-7.9h2.1v7.9H639.8z"/>
		<path fill="#5B5B5F" d="M643.5,960.8l2.4,0.3c0,0.3,0.1,0.5,0.3,0.6c0.2,0.1,0.5,0.2,0.9,0.2c0.5,0,1-0.1,1.2-0.2
			c0.2-0.1,0.3-0.3,0.4-0.5c0.1-0.2,0.1-0.5,0.1-1V959c-0.6,0.8-1.4,1.3-2.4,1.3c-1.1,0-1.9-0.4-2.5-1.3c-0.5-0.7-0.7-1.6-0.7-2.6
			c0-1.3,0.3-2.3,1-3c0.6-0.7,1.4-1,2.4-1c1,0,1.8,0.4,2.4,1.3v-1.1h1.9v7.1c0,0.9-0.1,1.6-0.2,2.1c-0.2,0.5-0.4,0.8-0.6,1.1
			c-0.3,0.3-0.6,0.5-1.1,0.6c-0.5,0.1-1,0.2-1.8,0.2c-1.3,0-2.3-0.2-2.8-0.7c-0.6-0.5-0.8-1-0.8-1.7
			C643.5,961,643.5,960.9,643.5,960.8z M645.3,956.2c0,0.8,0.2,1.4,0.5,1.8c0.3,0.4,0.7,0.6,1.2,0.6c0.5,0,0.9-0.2,1.3-0.6
			c0.4-0.4,0.5-1,0.5-1.8c0-0.8-0.2-1.4-0.5-1.8c-0.3-0.4-0.8-0.6-1.3-0.6c-0.5,0-0.9,0.2-1.2,0.6
			C645.5,954.8,645.3,955.4,645.3,956.2z"/>
		<path fill="#5B5B5F" d="M659.8,960.3h-2.1v-4c0-0.8,0-1.4-0.1-1.6c-0.1-0.2-0.2-0.4-0.4-0.6c-0.2-0.1-0.4-0.2-0.7-0.2
			c-0.4,0-0.7,0.1-1,0.3c-0.3,0.2-0.5,0.5-0.6,0.8s-0.2,0.9-0.2,1.8v3.6h-2.1v-7.9h1.9v1.2c0.7-0.9,1.6-1.3,2.6-1.3
			c0.5,0,0.9,0.1,1.3,0.2c0.4,0.2,0.7,0.4,0.9,0.6c0.2,0.3,0.3,0.5,0.4,0.9c0.1,0.3,0.1,0.8,0.1,1.4V960.3z"/>
		<path fill="#5B5B5F" d="M666.2,957.8l2.1,0.3c-0.3,0.8-0.7,1.3-1.3,1.7c-0.6,0.4-1.3,0.6-2.2,0.6c-1.4,0-2.4-0.4-3-1.3
			c-0.5-0.7-0.8-1.6-0.8-2.7c0-1.3,0.3-2.3,1-3.1c0.7-0.7,1.5-1.1,2.6-1.1c1.2,0,2.1,0.4,2.8,1.2c0.7,0.8,1,2,1,3.6h-5.2
			c0,0.6,0.2,1.1,0.5,1.4c0.3,0.3,0.7,0.5,1.2,0.5c0.3,0,0.6-0.1,0.8-0.3C665.9,958.5,666,958.2,666.2,957.8z M666.3,955.7
			c0-0.6-0.2-1.1-0.5-1.4c-0.3-0.3-0.7-0.5-1.1-0.5c-0.5,0-0.8,0.2-1.1,0.5c-0.3,0.3-0.4,0.8-0.4,1.3H666.3z"/>
		<path fill="#5B5B5F" d="M677,960.3H675v-1.2c-0.3,0.4-0.7,0.8-1.1,1c-0.4,0.2-0.9,0.3-1.3,0.3c-0.9,0-1.7-0.4-2.3-1.1
			c-0.6-0.7-1-1.7-1-3c0-1.3,0.3-2.3,0.9-3c0.6-0.7,1.4-1,2.4-1c0.9,0,1.6,0.4,2.3,1.1v-3.9h2.1V960.3z M671.4,956.2
			c0,0.8,0.1,1.4,0.3,1.8c0.3,0.5,0.8,0.8,1.4,0.8c0.5,0,0.9-0.2,1.2-0.6c0.3-0.4,0.5-1,0.5-1.8c0-0.9-0.2-1.6-0.5-2
			c-0.3-0.4-0.7-0.6-1.3-0.6c-0.5,0-0.9,0.2-1.2,0.6C671.6,954.8,671.4,955.4,671.4,956.2z"/>
		<path fill="#5B5B5F" d="M682.5,960.3v-10.9h2.1v3.9c0.6-0.7,1.4-1.1,2.3-1.1c1,0,1.8,0.3,2.4,1c0.6,0.7,0.9,1.7,0.9,3
			c0,1.3-0.3,2.4-1,3.1c-0.6,0.7-1.4,1.1-2.3,1.1c-0.4,0-0.9-0.1-1.3-0.3c-0.4-0.2-0.8-0.6-1.1-1v1.2H682.5z M684.6,956.2
			c0,0.8,0.1,1.4,0.4,1.8c0.4,0.6,0.8,0.8,1.4,0.8c0.5,0,0.9-0.2,1.2-0.6c0.3-0.4,0.5-1,0.5-1.9c0-0.9-0.2-1.5-0.5-1.9
			c-0.3-0.4-0.7-0.6-1.3-0.6c-0.5,0-0.9,0.2-1.2,0.6C684.8,954.8,684.6,955.4,684.6,956.2z"/>
		<path fill="#5B5B5F" d="M690.6,952.4h2.2l1.9,5.6l1.8-5.6h2.2l-2.8,7.6l-0.5,1.4c-0.2,0.5-0.4,0.8-0.5,1.1s-0.4,0.4-0.6,0.6
			c-0.2,0.2-0.5,0.3-0.8,0.4c-0.3,0.1-0.7,0.1-1.1,0.1c-0.4,0-0.8,0-1.2-0.1l-0.2-1.6c0.3,0.1,0.6,0.1,0.9,0.1
			c0.5,0,0.8-0.1,1.1-0.4c0.2-0.3,0.4-0.6,0.5-1.1L690.6,952.4z"/>
	</g>
</g>
</svg>
